<svg xmlns="http://www.w3.org/2000/svg" xmlns:xlink="http://www.w3.org/1999/xlink" width="1080" zoomAndPan="magnify" viewBox="0 0 810 1012.49997" height="1350" preserveAspectRatio="xMidYMid meet" version="1.2"><defs><clipPath id="40ed640194"><path d="M 401 107 L 781 107 L 781 503 L 401 503 Z M 401 107 "/></clipPath><clipPath id="0b904ef582"><path d="M 848.246094 179.847656 L 174.925781 1012.042969 L -38.367188 839.46875 L 634.953125 7.273438 Z M 848.246094 179.847656 "/></clipPath><clipPath id="34ac477686"><path d="M 848.246094 179.847656 L 174.925781 1012.042969 L -38.367188 839.46875 L 634.953125 7.273438 Z M 848.246094 179.847656 "/></clipPath><clipPath id="a860bb4e0b"><path d="M 465 556 L 499 556 L 499 585 L 465 585 Z M 465 556 "/></clipPath><clipPath id="bde1d38348"><path d="M 848.246094 179.847656 L 174.925781 1012.042969 L -38.367188 839.46875 L 634.953125 7.273438 Z M 848.246094 179.847656 "/></clipPath><clipPath id="0741a805dc"><path d="M 848.246094 179.847656 L 174.925781 1012.042969 L -38.367188 839.46875 L 634.953125 7.273438 Z M 848.246094 179.847656 "/></clipPath><clipPath id="2048a8209e"><path d="M 478 533 L 502 533 L 502 546 L 478 546 Z M 478 533 "/></clipPath><clipPath id="a1d83180ea"><path d="M 848.246094 179.847656 L 174.925781 1012.042969 L -38.367188 839.46875 L 634.953125 7.273438 Z M 848.246094 179.847656 "/></clipPath><clipPath id="185ff740f7"><path d="M 848.246094 179.847656 L 174.925781 1012.042969 L -38.367188 839.46875 L 634.953125 7.273438 Z M 848.246094 179.847656 "/></clipPath><clipPath id="3c44c880a4"><path d="M 445 574 L 462 574 L 462 596 L 445 596 Z M 445 574 "/></clipPath><clipPath id="b4f735923f"><path d="M 848.246094 179.847656 L 174.925781 1012.042969 L -38.367188 839.46875 L 634.953125 7.273438 Z M 848.246094 179.847656 "/></clipPath><clipPath id="c1a3919ae3"><path d="M 848.246094 179.847656 L 174.925781 1012.042969 L -38.367188 839.46875 L 634.953125 7.273438 Z M 848.246094 179.847656 "/></clipPath><clipPath id="1542eb07c9"><path d="M 350 422 L 366 422 L 366 444 L 350 444 Z M 350 422 "/></clipPath><clipPath id="6df662b7f1"><path d="M 848.246094 179.847656 L 174.925781 1012.042969 L -38.367188 839.46875 L 634.953125 7.273438 Z M 848.246094 179.847656 "/></clipPath><clipPath id="30d5d0d392"><path d="M 848.246094 179.847656 L 174.925781 1012.042969 L -38.367188 839.46875 L 634.953125 7.273438 Z M 848.246094 179.847656 "/></clipPath><clipPath id="731aa9a5c0"><path d="M 313 469 L 336 469 L 336 484 L 313 484 Z M 313 469 "/></clipPath><clipPath id="6993d4c431"><path d="M 848.246094 179.847656 L 174.925781 1012.042969 L -38.367188 839.46875 L 634.953125 7.273438 Z M 848.246094 179.847656 "/></clipPath><clipPath id="bbf8abe436"><path d="M 848.246094 179.847656 L 174.925781 1012.042969 L -38.367188 839.46875 L 634.953125 7.273438 Z M 848.246094 179.847656 "/></clipPath><clipPath id="c98d14d556"><path d="M 480 502 L 522 502 L 522 513 L 480 513 Z M 480 502 "/></clipPath><clipPath id="be7de9a505"><path d="M 848.246094 179.847656 L 174.925781 1012.042969 L -38.367188 839.46875 L 634.953125 7.273438 Z M 848.246094 179.847656 "/></clipPath><clipPath id="69ca8e32f9"><path d="M 848.246094 179.847656 L 174.925781 1012.042969 L -38.367188 839.46875 L 634.953125 7.273438 Z M 848.246094 179.847656 "/></clipPath><clipPath id="5f78146845"><path d="M 419 581 L 430 581 L 430 623 L 419 623 Z M 419 581 "/></clipPath><clipPath id="fd2007c2d9"><path d="M 848.246094 179.847656 L 174.925781 1012.042969 L -38.367188 839.46875 L 634.953125 7.273438 Z M 848.246094 179.847656 "/></clipPath><clipPath id="ce234cbf07"><path d="M 848.246094 179.847656 L 174.925781 1012.042969 L -38.367188 839.46875 L 634.953125 7.273438 Z M 848.246094 179.847656 "/></clipPath><clipPath id="944e6f73f6"><path d="M 312 432 L 346 432 L 346 461 L 312 461 Z M 312 432 "/></clipPath><clipPath id="9e9669e8ce"><path d="M 848.246094 179.847656 L 174.925781 1012.042969 L -38.367188 839.46875 L 634.953125 7.273438 Z M 848.246094 179.847656 "/></clipPath><clipPath id="fc7dee72a4"><path d="M 848.246094 179.847656 L 174.925781 1012.042969 L -38.367188 839.46875 L 634.953125 7.273438 Z M 848.246094 179.847656 "/></clipPath><clipPath id="7d607bd3d8"><path d="M 381 394 L 392 394 L 392 436 L 381 436 Z M 381 394 "/></clipPath><clipPath id="e0e85fbc66"><path d="M 848.246094 179.847656 L 174.925781 1012.042969 L -38.367188 839.46875 L 634.953125 7.273438 Z M 848.246094 179.847656 "/></clipPath><clipPath id="431d791fc9"><path d="M 848.246094 179.847656 L 174.925781 1012.042969 L -38.367188 839.46875 L 634.953125 7.273438 Z M 848.246094 179.847656 "/></clipPath><clipPath id="a9569c6d67"><path d="M 289 504 L 331 504 L 331 515 L 289 515 Z M 289 504 "/></clipPath><clipPath id="e8e843e658"><path d="M 848.246094 179.847656 L 174.925781 1012.042969 L -38.367188 839.46875 L 634.953125 7.273438 Z M 848.246094 179.847656 "/></clipPath><clipPath id="9edc296999"><path d="M 848.246094 179.847656 L 174.925781 1012.042969 L -38.367188 839.46875 L 634.953125 7.273438 Z M 848.246094 179.847656 "/></clipPath><clipPath id="3a60584714"><path d="M 30 515 L 411 515 L 411 911 L 30 911 Z M 30 515 "/></clipPath><clipPath id="64cd332a9d"><path d="M 848.246094 179.847656 L 174.925781 1012.042969 L -38.367188 839.46875 L 634.953125 7.273438 Z M 848.246094 179.847656 "/></clipPath><clipPath id="032552e127"><path d="M 848.246094 179.847656 L 174.925781 1012.042969 L -38.367188 839.46875 L 634.953125 7.273438 Z M 848.246094 179.847656 "/></clipPath><clipPath id="866b99cdd9"><path d="M 418 492 L 449 492 L 449 526 L 418 526 Z M 418 492 "/></clipPath><clipPath id="0c58bd78ea"><path d="M 848.246094 179.847656 L 174.925781 1012.042969 L -38.367188 839.46875 L 634.953125 7.273438 Z M 848.246094 179.847656 "/></clipPath><clipPath id="7da140f84d"><path d="M 848.246094 179.847656 L 174.925781 1012.042969 L -38.367188 839.46875 L 634.953125 7.273438 Z M 848.246094 179.847656 "/></clipPath><clipPath id="6b1cc6d097"><path d="M 384 464 L 414 464 L 414 499 L 384 499 Z M 384 464 "/></clipPath><clipPath id="e6942a8d1c"><path d="M 848.246094 179.847656 L 174.925781 1012.042969 L -38.367188 839.46875 L 634.953125 7.273438 Z M 848.246094 179.847656 "/></clipPath><clipPath id="94ad1c1c4a"><path d="M 848.246094 179.847656 L 174.925781 1012.042969 L -38.367188 839.46875 L 634.953125 7.273438 Z M 848.246094 179.847656 "/></clipPath><clipPath id="2e2476daaf"><path d="M 392 479 L 430 479 L 430 524 L 392 524 Z M 392 479 "/></clipPath><clipPath id="226a73ffb6"><path d="M 848.246094 179.847656 L 174.925781 1012.042969 L -38.367188 839.46875 L 634.953125 7.273438 Z M 848.246094 179.847656 "/></clipPath><clipPath id="fa1cedc4ab"><path d="M 848.246094 179.847656 L 174.925781 1012.042969 L -38.367188 839.46875 L 634.953125 7.273438 Z M 848.246094 179.847656 "/></clipPath><clipPath id="133a501bf1"><path d="M 401 107 L 781 107 L 781 503 L 401 503 Z M 401 107 "/></clipPath><clipPath id="6044f8b532"><path d="M 848.253906 179.84375 L 504.050781 605.265625 L 290.757812 432.691406 L 634.960938 7.269531 Z M 848.253906 179.84375 "/></clipPath><clipPath id="059d0cfb45"><path d="M 848.253906 179.84375 L 174.933594 1012.039062 L -38.359375 839.464844 L 634.960938 7.269531 Z M 848.253906 179.84375 "/></clipPath><clipPath id="668c33b70b"><path d="M 465 556 L 499 556 L 499 585 L 465 585 Z M 465 556 "/></clipPath><clipPath id="63b14d299c"><path d="M 848.253906 179.84375 L 504.050781 605.265625 L 290.757812 432.691406 L 634.960938 7.269531 Z M 848.253906 179.84375 "/></clipPath><clipPath id="29516db4ee"><path d="M 848.253906 179.84375 L 174.933594 1012.039062 L -38.359375 839.464844 L 634.960938 7.269531 Z M 848.253906 179.84375 "/></clipPath><clipPath id="7561a85c23"><path d="M 478 533 L 502 533 L 502 546 L 478 546 Z M 478 533 "/></clipPath><clipPath id="7c52139c9e"><path d="M 848.253906 179.84375 L 504.050781 605.265625 L 290.757812 432.691406 L 634.960938 7.269531 Z M 848.253906 179.84375 "/></clipPath><clipPath id="dde4301af7"><path d="M 848.253906 179.84375 L 174.933594 1012.039062 L -38.359375 839.464844 L 634.960938 7.269531 Z M 848.253906 179.84375 "/></clipPath><clipPath id="8f9c148d1b"><path d="M 350 422 L 366 422 L 366 444 L 350 444 Z M 350 422 "/></clipPath><clipPath id="91e4fb509d"><path d="M 848.253906 179.84375 L 504.050781 605.265625 L 290.757812 432.691406 L 634.960938 7.269531 Z M 848.253906 179.84375 "/></clipPath><clipPath id="45636eeb55"><path d="M 848.253906 179.84375 L 174.933594 1012.039062 L -38.359375 839.464844 L 634.960938 7.269531 Z M 848.253906 179.84375 "/></clipPath><clipPath id="222a7aa34b"><path d="M 480 502 L 522 502 L 522 513 L 480 513 Z M 480 502 "/></clipPath><clipPath id="4b25dbaf8a"><path d="M 848.253906 179.84375 L 504.050781 605.265625 L 290.757812 432.691406 L 634.960938 7.269531 Z M 848.253906 179.84375 "/></clipPath><clipPath id="3e48499075"><path d="M 848.253906 179.84375 L 174.933594 1012.039062 L -38.359375 839.464844 L 634.960938 7.269531 Z M 848.253906 179.84375 "/></clipPath><clipPath id="7daca3dced"><path d="M 312 432 L 346 432 L 346 461 L 312 461 Z M 312 432 "/></clipPath><clipPath id="7cba963f52"><path d="M 848.253906 179.84375 L 504.050781 605.265625 L 290.757812 432.691406 L 634.960938 7.269531 Z M 848.253906 179.84375 "/></clipPath><clipPath id="21b9c66a8d"><path d="M 848.253906 179.84375 L 174.933594 1012.039062 L -38.359375 839.464844 L 634.960938 7.269531 Z M 848.253906 179.84375 "/></clipPath><clipPath id="f0c2a2ad17"><path d="M 381 394 L 392 394 L 392 436 L 381 436 Z M 381 394 "/></clipPath><clipPath id="52c1e1c88f"><path d="M 848.253906 179.84375 L 504.050781 605.265625 L 290.757812 432.691406 L 634.960938 7.269531 Z M 848.253906 179.84375 "/></clipPath><clipPath id="814e43f231"><path d="M 848.253906 179.84375 L 174.933594 1012.039062 L -38.359375 839.464844 L 634.960938 7.269531 Z M 848.253906 179.84375 "/></clipPath><clipPath id="88df152f68"><path d="M 418 492 L 449 492 L 449 526 L 418 526 Z M 418 492 "/></clipPath><clipPath id="079efe64b1"><path d="M 848.253906 179.84375 L 504.050781 605.265625 L 290.757812 432.691406 L 634.960938 7.269531 Z M 848.253906 179.84375 "/></clipPath><clipPath id="8b6669046b"><path d="M 848.253906 179.84375 L 174.933594 1012.039062 L -38.359375 839.464844 L 634.960938 7.269531 Z M 848.253906 179.84375 "/></clipPath><clipPath id="468d3b751d"><path d="M 384 464 L 414 464 L 414 499 L 384 499 Z M 384 464 "/></clipPath><clipPath id="279f8115ba"><path d="M 848.253906 179.84375 L 504.050781 605.265625 L 290.757812 432.691406 L 634.960938 7.269531 Z M 848.253906 179.84375 "/></clipPath><clipPath id="a3e77cf8f1"><path d="M 848.253906 179.84375 L 174.933594 1012.039062 L -38.359375 839.464844 L 634.960938 7.269531 Z M 848.253906 179.84375 "/></clipPath><clipPath id="226b5eb91d"><path d="M 392 479 L 430 479 L 430 524 L 392 524 Z M 392 479 "/></clipPath><clipPath id="ace2b331f2"><path d="M 848.253906 179.84375 L 504.050781 605.265625 L 290.757812 432.691406 L 634.960938 7.269531 Z M 848.253906 179.84375 "/></clipPath><clipPath id="ee6ca99505"><path d="M 848.253906 179.84375 L 174.933594 1012.039062 L -38.359375 839.464844 L 634.960938 7.269531 Z M 848.253906 179.84375 "/></clipPath></defs><g id="66425bada5"><g clip-rule="nonzero" clip-path="url(#40ed640194)"><g clip-rule="nonzero" clip-path="url(#0b904ef582)"><g clip-rule="nonzero" clip-path="url(#34ac477686)"><path style=" stroke:none;fill-rule:nonzero;fill:#29323b;fill-opacity:1;" d="M 455.957031 501.367188 L 402.265625 457.953125 C 400.886719 456.835938 400.679688 454.820312 401.785156 453.441406 L 404.050781 450.644531 C 404.953125 449.527344 406.464844 449.171875 407.734375 449.683594 L 418.394531 436.507812 C 423.621094 430.046875 432.734375 427.949219 442.492188 430 C 447.753906 431.109375 453.195312 429.230469 456.582031 425.046875 L 462.4375 417.8125 C 460.035156 415.746094 459.691406 412.132812 461.699219 409.652344 L 462.75 408.351562 C 464.792969 405.824219 468.507812 405.429688 471.03125 407.472656 L 473.378906 409.371094 C 473.378906 409.371094 485.511719 401.003906 485.511719 401.003906 L 492.074219 393.257812 C 505.34375 374.960938 502.085938 349.183594 484.308594 334.808594 L 471.828125 324.710938 C 471.828125 324.710938 457.40625 313.050781 457.40625 313.050781 C 434.324219 294.382812 430.710938 260.425781 449.335938 237.324219 C 449.355469 237.300781 449.375 237.28125 449.390625 237.257812 C 468.082031 214.15625 502.070312 210.554688 525.179688 229.242188 L 589.523438 281.28125 C 607.894531 296.132812 634.933594 293.277344 649.789062 274.902344 C 649.800781 274.886719 649.816406 274.867188 649.824219 274.859375 C 664.636719 256.480469 661.769531 229.484375 643.414062 214.636719 L 643.417969 214.632812 C 643.417969 214.632812 629.027344 202.992188 629.027344 202.992188 C 605.957031 184.316406 602.363281 150.375 620.980469 127.28125 C 621.003906 127.253906 621.019531 127.222656 621.042969 127.203125 C 630.101562 116.003906 642.96875 109.015625 657.296875 107.507812 C 671.609375 106.003906 685.652344 110.15625 696.851562 119.214844 L 708.226562 128.421875 C 726.335938 143.074219 752.875 140.507812 767.863281 122.832031 L 767.828125 122.804688 C 767.828125 122.804688 771.734375 117.949219 771.734375 117.949219 L 780.363281 124.929688 L 769.574219 136.609375 C 751.195312 151.84375 724.410156 153.292969 704.402344 139.347656 L 704.316406 139.457031 C 704.316406 139.457031 689.902344 127.792969 689.902344 127.792969 C 671.53125 112.933594 644.5 115.78125 629.632812 134.144531 C 629.617188 134.164062 629.597656 134.191406 629.582031 134.210938 C 614.773438 152.574219 617.636719 179.566406 635.980469 194.410156 L 650.398438 206.074219 C 650.398438 206.074219 650.390625 206.085938 650.390625 206.085938 C 673.441406 224.761719 677.046875 258.695312 658.425781 281.789062 C 658.410156 281.808594 658.390625 281.832031 658.371094 281.855469 C 649.320312 293.042969 636.453125 300.042969 622.136719 301.558594 C 607.820312 303.074219 593.773438 298.917969 582.578125 289.867188 L 518.234375 237.839844 C 499.859375 222.972656 472.820312 225.839844 457.96875 244.207031 C 457.949219 244.226562 457.9375 244.242188 457.921875 244.261719 C 443.109375 262.628906 445.988281 289.628906 464.339844 304.476562 L 476.824219 314.578125 C 476.824219 314.578125 491.246094 326.238281 491.246094 326.238281 C 514.328125 344.90625 517.945312 378.867188 499.3125 401.964844 C 499.296875 401.984375 494.214844 408.0625 494.214844 408.0625 L 488.558594 421.667969 L 490.90625 423.570312 C 493.433594 425.613281 493.832031 429.324219 491.78125 431.847656 L 490.734375 433.144531 C 488.726562 435.625 485.125 436.046875 482.601562 434.128906 L 476.746094 441.363281 C 473.363281 445.546875 472.675781 451.269531 474.851562 456.179688 C 478.910156 465.296875 478.757812 474.648438 473.527344 481.109375 L 462.871094 494.285156 C 463.636719 495.417969 463.613281 496.96875 462.707031 498.089844 L 460.445312 500.886719 C 459.332031 502.261719 457.316406 502.476562 455.9375 501.363281 Z M 455.957031 501.367188 "/></g></g></g><g clip-rule="nonzero" clip-path="url(#a860bb4e0b)"><g clip-rule="nonzero" clip-path="url(#bde1d38348)"><g clip-rule="nonzero" clip-path="url(#0741a805dc)"><path style=" stroke:none;fill-rule:nonzero;fill:#29323b;fill-opacity:1;" d="M 498.210938 583.683594 C 499.308594 582.328125 499.097656 580.34375 497.746094 579.246094 L 470.640625 557.316406 C 469.28125 556.226562 467.292969 556.4375 466.195312 557.792969 C 465.101562 559.148438 465.308594 561.132812 466.664062 562.230469 L 493.769531 584.160156 C 495.128906 585.25 497.117188 585.035156 498.210938 583.683594 Z M 498.210938 583.683594 "/></g></g></g><g clip-rule="nonzero" clip-path="url(#2048a8209e)"><g clip-rule="nonzero" clip-path="url(#a1d83180ea)"><g clip-rule="nonzero" clip-path="url(#185ff740f7)"><path style=" stroke:none;fill-rule:nonzero;fill:#29323b;fill-opacity:1;" d="M 482.878906 533.539062 C 481.582031 533.066406 480.167969 533.5 479.351562 534.519531 C 479.136719 534.785156 478.964844 535.089844 478.839844 535.429688 C 478.246094 537.066406 479.089844 538.875 480.726562 539.46875 L 497.109375 545.429688 C 498.746094 546.023438 500.554688 545.179688 501.148438 543.542969 C 501.742188 541.90625 500.898438 540.097656 499.261719 539.5 Z M 482.878906 533.539062 "/></g></g></g><g clip-rule="nonzero" clip-path="url(#3c44c880a4)"><g clip-rule="nonzero" clip-path="url(#b4f735923f)"><g clip-rule="nonzero" clip-path="url(#c1a3919ae3)"><path style=" stroke:none;fill-rule:nonzero;fill:#29323b;fill-opacity:1;" d="M 459.566406 594.953125 C 461.046875 594.03125 461.488281 592.082031 460.566406 590.605469 L 451.3125 575.835938 C 450.390625 574.355469 448.441406 573.914062 446.964844 574.835938 C 446.660156 575.027344 446.398438 575.257812 446.183594 575.527344 C 445.359375 576.542969 445.230469 578.015625 445.964844 579.1875 L 455.21875 593.957031 C 456.140625 595.433594 458.089844 595.878906 459.566406 594.953125 Z M 459.566406 594.953125 "/></g></g></g><g clip-rule="nonzero" clip-path="url(#1542eb07c9)"><g clip-rule="nonzero" clip-path="url(#6df662b7f1)"><g clip-rule="nonzero" clip-path="url(#30d5d0d392)"><path style=" stroke:none;fill-rule:nonzero;fill:#29323b;fill-opacity:1;" d="M 364.183594 442.703125 C 365.660156 441.777344 366.105469 439.832031 365.179688 438.351562 L 355.925781 423.582031 C 355.003906 422.105469 353.054688 421.660156 351.578125 422.582031 C 351.277344 422.773438 351.015625 423.007812 350.796875 423.273438 C 349.972656 424.292969 349.84375 425.761719 350.578125 426.933594 L 359.832031 441.703125 C 360.757812 443.183594 362.703125 443.625 364.183594 442.703125 Z M 364.183594 442.703125 "/></g></g></g><g clip-rule="nonzero" clip-path="url(#731aa9a5c0)"><g clip-rule="nonzero" clip-path="url(#6993d4c431)"><g clip-rule="nonzero" clip-path="url(#bbf8abe436)"><path style=" stroke:none;fill-rule:nonzero;fill:#29323b;fill-opacity:1;" d="M 330.945312 483.011719 C 332.527344 483.742188 334.402344 483.050781 335.132812 481.472656 C 335.863281 479.886719 335.171875 478.011719 333.589844 477.285156 L 317.765625 469.976562 C 316.511719 469.394531 315.074219 469.710938 314.167969 470.660156 C 313.933594 470.90625 313.730469 471.195312 313.578125 471.515625 C 312.847656 473.101562 313.539062 474.972656 315.121094 475.703125 Z M 330.945312 483.011719 "/></g></g></g><g clip-rule="nonzero" clip-path="url(#c98d14d556)"><g clip-rule="nonzero" clip-path="url(#be7de9a505)"><g clip-rule="nonzero" clip-path="url(#69ca8e32f9)"><path style=" stroke:none;fill-rule:nonzero;fill:#29323b;fill-opacity:1;" d="M 483.15625 506.410156 C 482.292969 506.507812 481.542969 506.933594 481.035156 507.558594 C 480.53125 508.1875 480.257812 509.007812 480.355469 509.875 C 480.539062 511.609375 482.089844 512.863281 483.824219 512.683594 L 518.5 509.011719 C 520.234375 508.832031 521.488281 507.277344 521.308594 505.542969 C 521.125 503.8125 519.570312 502.554688 517.835938 502.738281 L 483.160156 506.40625 Z M 483.15625 506.410156 "/></g></g></g><g clip-rule="nonzero" clip-path="url(#5f78146845)"><g clip-rule="nonzero" clip-path="url(#fd2007c2d9)"><g clip-rule="nonzero" clip-path="url(#ce234cbf07)"><path style=" stroke:none;fill-rule:nonzero;fill:#29323b;fill-opacity:1;" d="M 420.183594 582.8125 C 419.675781 583.441406 419.40625 584.261719 419.5 585.128906 L 423.167969 619.804688 C 423.351562 621.539062 424.90625 622.792969 426.636719 622.613281 C 428.371094 622.429688 429.628906 620.875 429.445312 619.140625 L 425.777344 584.464844 C 425.59375 582.734375 424.039062 581.476562 422.308594 581.660156 C 421.441406 581.753906 420.691406 582.183594 420.1875 582.808594 Z M 420.183594 582.8125 "/></g></g></g><g clip-rule="nonzero" clip-path="url(#944e6f73f6)"><g clip-rule="nonzero" clip-path="url(#9e9669e8ce)"><g clip-rule="nonzero" clip-path="url(#fc7dee72a4)"><path style=" stroke:none;fill-rule:nonzero;fill:#29323b;fill-opacity:1;" d="M 344.953125 459.746094 C 346.050781 458.394531 345.839844 456.410156 344.488281 455.3125 L 317.382812 433.382812 C 316.023438 432.292969 314.035156 432.503906 312.9375 433.859375 C 311.84375 435.214844 312.050781 437.199219 313.40625 438.296875 L 340.511719 460.226562 C 341.871094 461.316406 343.859375 461.101562 344.953125 459.746094 Z M 344.953125 459.746094 "/></g></g></g><g clip-rule="nonzero" clip-path="url(#7d607bd3d8)"><g clip-rule="nonzero" clip-path="url(#e0e85fbc66)"><g clip-rule="nonzero" clip-path="url(#431d791fc9)"><path style=" stroke:none;fill-rule:nonzero;fill:#29323b;fill-opacity:1;" d="M 391.648438 432.414062 L 387.980469 397.738281 C 387.800781 396.003906 386.246094 394.746094 384.511719 394.929688 C 383.652344 395.023438 382.898438 395.453125 382.390625 396.082031 C 381.886719 396.707031 381.613281 397.527344 381.710938 398.394531 L 385.378906 433.070312 C 385.5625 434.804688 387.113281 436.0625 388.847656 435.878906 C 390.582031 435.695312 391.835938 434.140625 391.652344 432.410156 Z M 391.648438 432.414062 "/></g></g></g><g clip-rule="nonzero" clip-path="url(#a9569c6d67)"><g clip-rule="nonzero" clip-path="url(#e8e843e658)"><g clip-rule="nonzero" clip-path="url(#9edc296999)"><path style=" stroke:none;fill-rule:nonzero;fill:#29323b;fill-opacity:1;" d="M 327.992188 511.132812 C 329.726562 510.949219 330.984375 509.394531 330.800781 507.664062 C 330.617188 505.929688 329.0625 504.671875 327.332031 504.855469 L 292.65625 508.523438 C 291.789062 508.621094 291.039062 509.046875 290.535156 509.671875 C 290.027344 510.300781 289.753906 511.121094 289.851562 511.988281 C 290.035156 513.722656 291.585938 514.976562 293.320312 514.796875 L 327.996094 511.125 Z M 327.992188 511.132812 "/></g></g></g><g clip-rule="nonzero" clip-path="url(#3a60584714)"><g clip-rule="nonzero" clip-path="url(#64cd332a9d)"><g clip-rule="nonzero" clip-path="url(#032552e127)"><path style=" stroke:none;fill-rule:nonzero;fill:#29323b;fill-opacity:1;" d="M 38.257812 901.335938 L 30.003906 894.65625 L 40.472656 882.226562 C 58.855469 866.164062 86.28125 864.390625 106.671875 878.601562 L 106.769531 878.484375 C 106.769531 878.484375 121.183594 890.15625 121.183594 890.15625 C 139.550781 905.015625 166.582031 902.167969 181.449219 883.804688 C 181.464844 883.785156 181.488281 883.757812 181.503906 883.738281 C 196.3125 865.375 193.445312 838.386719 175.097656 823.535156 L 160.6875 811.875 C 160.6875 811.875 160.695312 811.863281 160.695312 811.863281 C 137.640625 793.1875 134.039062 759.253906 152.652344 736.160156 C 152.671875 736.132812 152.6875 736.113281 152.703125 736.09375 C 171.394531 712.992188 205.390625 709.394531 228.492188 728.078125 L 292.839844 780.117188 C 311.207031 794.976562 338.246094 792.109375 353.105469 773.746094 C 353.121094 773.726562 353.132812 773.710938 353.144531 773.695312 C 367.960938 755.324219 365.089844 728.320312 346.726562 713.480469 L 332.3125 701.820312 C 332.3125 701.820312 319.828125 691.726562 319.828125 691.726562 C 296.742188 673.058594 293.132812 639.101562 311.761719 615.996094 C 311.761719 615.996094 316.921875 609.484375 316.921875 609.484375 L 322.570312 595.878906 L 320.222656 593.980469 C 317.695312 591.9375 317.296875 588.222656 319.347656 585.691406 L 320.394531 584.398438 C 322.402344 581.914062 326.003906 581.496094 328.523438 583.414062 L 334.382812 576.171875 C 337.769531 571.988281 338.453125 566.265625 336.273438 561.351562 C 332.226562 552.242188 332.363281 542.886719 337.597656 536.421875 L 348.25 523.253906 C 347.492188 522.113281 347.511719 520.5625 348.421875 519.449219 L 350.683594 516.652344 C 351.800781 515.273438 353.808594 515.0625 355.1875 516.167969 L 408.878906 559.585938 C 410.257812 560.699219 410.46875 562.71875 409.355469 564.101562 L 407.097656 566.890625 C 406.191406 568.011719 404.683594 568.363281 403.414062 567.851562 L 392.757812 581.023438 C 387.527344 587.484375 378.410156 589.585938 368.65625 587.535156 C 363.394531 586.429688 357.945312 588.300781 354.5625 592.488281 L 348.707031 599.726562 C 351.109375 601.792969 351.457031 605.40625 349.449219 607.886719 L 348.394531 609.1875 C 346.351562 611.714844 342.640625 612.109375 340.113281 610.058594 L 337.765625 608.15625 C 337.765625 608.15625 325.640625 616.53125 325.640625 616.53125 C 325.640625 616.53125 320.363281 622.921875 320.359375 622.925781 C 305.546875 641.296875 308.421875 668.296875 326.777344 683.144531 L 341.199219 694.808594 C 341.199219 694.808594 353.683594 704.902344 353.683594 704.902344 C 376.765625 723.570312 380.378906 757.527344 361.75 780.632812 C 361.730469 780.652344 361.714844 780.671875 361.695312 780.699219 C 343.003906 803.800781 309.015625 807.402344 285.898438 788.714844 L 221.554688 736.683594 C 203.179688 721.828125 176.148438 724.6875 161.292969 743.058594 C 161.28125 743.074219 161.265625 743.089844 161.253906 743.105469 C 146.4375 761.476562 149.3125 788.480469 167.671875 803.320312 L 167.664062 803.328125 C 167.664062 803.328125 182.054688 814.972656 182.054688 814.972656 C 205.128906 833.640625 208.726562 867.589844 190.105469 890.683594 C 190.082031 890.714844 190.0625 890.738281 190.039062 890.769531 C 171.347656 913.867188 137.339844 917.453125 114.242188 898.753906 L 102.859375 889.546875 C 84.75 874.894531 58.210938 877.457031 43.226562 895.136719 L 43.253906 895.160156 C 43.253906 895.160156 38.265625 901.347656 38.265625 901.347656 Z M 38.257812 901.335938 "/></g></g></g><g clip-rule="nonzero" clip-path="url(#866b99cdd9)"><g clip-rule="nonzero" clip-path="url(#0c58bd78ea)"><g clip-rule="nonzero" clip-path="url(#7da140f84d)"><path style=" stroke:none;fill-rule:nonzero;fill:#29323b;fill-opacity:1;" d="M 419.230469 517.972656 L 439.53125 492.792969 L 448.230469 499.804688 L 427.929688 524.984375 C 427.128906 525.972656 425.679688 526.128906 424.691406 525.332031 L 419.578125 521.210938 C 418.589844 520.410156 418.433594 518.960938 419.230469 517.972656 Z M 419.230469 517.972656 "/></g></g></g><g clip-rule="nonzero" clip-path="url(#6b1cc6d097)"><g clip-rule="nonzero" clip-path="url(#e6942a8d1c)"><g clip-rule="nonzero" clip-path="url(#94ad1c1c4a)"><path style=" stroke:none;fill-rule:nonzero;fill:#29323b;fill-opacity:1;" d="M 384.734375 490.160156 L 405.03125 464.980469 L 413.730469 471.992188 L 393.429688 497.171875 C 392.632812 498.160156 391.183594 498.316406 390.195312 497.519531 L 385.078125 493.394531 C 384.09375 492.597656 383.933594 491.148438 384.734375 490.160156 Z M 384.734375 490.160156 "/></g></g></g><g clip-rule="nonzero" clip-path="url(#2e2476daaf)"><g clip-rule="nonzero" clip-path="url(#226a73ffb6)"><g clip-rule="nonzero" clip-path="url(#fa1cedc4ab)"><path style=" stroke:none;fill-rule:nonzero;fill:#29323b;fill-opacity:1;" d="M 396.25 523.347656 L 393.058594 520.765625 C 392.105469 520.003906 392.148438 518.378906 393.148438 517.128906 L 423.3125 479.71875 L 429.941406 485.066406 L 399.777344 522.476562 C 398.769531 523.722656 397.191406 524.113281 396.242188 523.34375 Z M 396.25 523.347656 "/></g></g></g><g clip-rule="nonzero" clip-path="url(#133a501bf1)"><g clip-rule="nonzero" clip-path="url(#6044f8b532)"><g clip-rule="nonzero" clip-path="url(#059d0cfb45)"><path style=" stroke:none;fill-rule:nonzero;fill:#1c62ab;fill-opacity:1;" d="M 455.964844 501.363281 L 402.273438 457.949219 C 400.894531 456.832031 400.6875 454.816406 401.792969 453.4375 L 404.058594 450.640625 C 404.960938 449.523438 406.472656 449.167969 407.742188 449.679688 L 418.402344 436.503906 C 423.628906 430.042969 432.742188 427.945312 442.5 429.996094 C 447.761719 431.105469 453.203125 429.230469 456.589844 425.042969 L 462.445312 417.808594 C 460.042969 415.742188 459.699219 412.128906 461.707031 409.648438 L 462.757812 408.347656 C 464.800781 405.820312 468.515625 405.425781 471.039062 407.46875 L 473.386719 409.367188 C 473.386719 409.367188 485.519531 401 485.519531 401 L 492.082031 393.253906 C 505.351562 374.957031 502.09375 349.179688 484.316406 334.804688 L 471.835938 324.707031 C 471.835938 324.707031 457.414062 313.046875 457.414062 313.046875 C 434.332031 294.378906 430.71875 260.421875 449.34375 237.320312 C 449.363281 237.296875 449.382812 237.277344 449.398438 237.257812 C 468.089844 214.152344 502.078125 210.550781 525.1875 229.238281 L 589.53125 281.277344 C 607.902344 296.128906 634.941406 293.273438 649.796875 274.898438 C 649.808594 274.882812 649.824219 274.863281 649.832031 274.855469 C 664.644531 256.476562 661.777344 229.480469 643.421875 214.632812 L 643.425781 214.628906 C 643.425781 214.628906 629.035156 202.988281 629.035156 202.988281 C 605.964844 184.3125 602.371094 150.371094 620.988281 127.277344 C 621.011719 127.25 621.027344 127.21875 621.050781 127.199219 C 630.109375 116 642.976562 109.011719 657.304688 107.503906 C 671.617188 106 685.660156 110.152344 696.859375 119.214844 L 708.234375 128.417969 C 726.34375 143.070312 752.882812 140.503906 767.871094 122.828125 L 767.835938 122.800781 C 767.835938 122.800781 771.742188 117.945312 771.742188 117.945312 L 780.371094 124.925781 L 769.582031 136.605469 C 751.203125 151.839844 724.417969 153.289062 704.410156 139.34375 L 704.324219 139.453125 C 704.324219 139.453125 689.910156 127.789062 689.910156 127.789062 C 671.539062 112.929688 644.507812 115.777344 629.640625 134.140625 C 629.625 134.160156 629.605469 134.1875 629.589844 134.207031 C 614.78125 152.570312 617.644531 179.5625 635.988281 194.40625 L 650.40625 206.070312 C 650.40625 206.070312 650.398438 206.082031 650.398438 206.082031 C 673.449219 224.757812 677.054688 258.691406 658.433594 281.785156 C 658.417969 281.808594 658.398438 281.828125 658.378906 281.851562 C 649.328125 293.039062 636.460938 300.039062 622.144531 301.554688 C 607.828125 303.070312 593.78125 298.914062 582.585938 289.863281 L 518.242188 237.835938 C 499.867188 222.96875 472.828125 225.835938 457.976562 244.203125 C 457.957031 244.222656 457.945312 244.238281 457.929688 244.257812 C 443.117188 262.628906 445.996094 289.625 464.347656 304.472656 L 476.832031 314.574219 C 476.832031 314.574219 491.253906 326.234375 491.253906 326.234375 C 514.335938 344.902344 517.953125 378.863281 499.320312 401.960938 C 499.304688 401.980469 494.222656 408.058594 494.222656 408.058594 L 488.566406 421.664062 L 490.914062 423.566406 C 493.441406 425.609375 493.839844 429.320312 491.789062 431.84375 L 490.742188 433.140625 C 488.734375 435.621094 485.132812 436.042969 482.609375 434.125 L 476.753906 441.359375 C 473.371094 445.542969 472.683594 451.265625 474.859375 456.175781 C 478.917969 465.292969 478.765625 474.644531 473.535156 481.109375 L 462.878906 494.28125 C 463.644531 495.414062 463.621094 496.964844 462.714844 498.089844 L 460.453125 500.882812 C 459.339844 502.257812 457.324219 502.472656 455.945312 501.359375 Z M 455.964844 501.363281 "/></g></g></g><g clip-rule="nonzero" clip-path="url(#668c33b70b)"><g clip-rule="nonzero" clip-path="url(#63b14d299c)"><g clip-rule="nonzero" clip-path="url(#29516db4ee)"><path style=" stroke:none;fill-rule:nonzero;fill:#1c62ab;fill-opacity:1;" d="M 498.21875 583.679688 C 499.316406 582.324219 499.105469 580.339844 497.75 579.242188 L 470.648438 557.3125 C 469.289062 556.222656 467.300781 556.4375 466.203125 557.789062 C 465.109375 559.144531 465.316406 561.128906 466.671875 562.226562 L 493.777344 584.15625 C 495.136719 585.246094 497.125 585.03125 498.21875 583.679688 Z M 498.21875 583.679688 "/></g></g></g><g clip-rule="nonzero" clip-path="url(#7561a85c23)"><g clip-rule="nonzero" clip-path="url(#7c52139c9e)"><g clip-rule="nonzero" clip-path="url(#dde4301af7)"><path style=" stroke:none;fill-rule:nonzero;fill:#1c62ab;fill-opacity:1;" d="M 482.886719 533.535156 C 481.589844 533.0625 480.175781 533.496094 479.359375 534.515625 C 479.144531 534.78125 478.972656 535.085938 478.847656 535.425781 C 478.253906 537.0625 479.097656 538.871094 480.734375 539.464844 L 497.117188 545.425781 C 498.753906 546.019531 500.5625 545.175781 501.15625 543.539062 C 501.75 541.902344 500.90625 540.09375 499.269531 539.5 Z M 482.886719 533.535156 "/></g></g></g><g clip-rule="nonzero" clip-path="url(#8f9c148d1b)"><g clip-rule="nonzero" clip-path="url(#91e4fb509d)"><g clip-rule="nonzero" clip-path="url(#45636eeb55)"><path style=" stroke:none;fill-rule:nonzero;fill:#1c62ab;fill-opacity:1;" d="M 364.191406 442.699219 C 365.667969 441.777344 366.113281 439.828125 365.1875 438.347656 L 355.933594 423.578125 C 355.011719 422.101562 353.0625 421.65625 351.585938 422.578125 C 351.285156 422.769531 351.023438 423.003906 350.804688 423.269531 C 349.980469 424.289062 349.851562 425.757812 350.585938 426.929688 L 359.839844 441.699219 C 360.765625 443.179688 362.710938 443.621094 364.191406 442.699219 Z M 364.191406 442.699219 "/></g></g></g><g clip-rule="nonzero" clip-path="url(#222a7aa34b)"><g clip-rule="nonzero" clip-path="url(#4b25dbaf8a)"><g clip-rule="nonzero" clip-path="url(#3e48499075)"><path style=" stroke:none;fill-rule:nonzero;fill:#1c62ab;fill-opacity:1;" d="M 483.164062 506.40625 C 482.300781 506.503906 481.550781 506.929688 481.042969 507.558594 C 480.539062 508.183594 480.265625 509.003906 480.363281 509.871094 C 480.546875 511.605469 482.097656 512.859375 483.832031 512.679688 L 518.507812 509.011719 C 520.242188 508.828125 521.496094 507.273438 521.316406 505.539062 C 521.132812 503.808594 519.578125 502.550781 517.84375 502.734375 L 483.167969 506.402344 Z M 483.164062 506.40625 "/></g></g></g><g clip-rule="nonzero" clip-path="url(#7daca3dced)"><g clip-rule="nonzero" clip-path="url(#7cba963f52)"><g clip-rule="nonzero" clip-path="url(#21b9c66a8d)"><path style=" stroke:none;fill-rule:nonzero;fill:#1c62ab;fill-opacity:1;" d="M 344.960938 459.746094 C 346.058594 458.390625 345.847656 456.40625 344.492188 455.308594 L 317.390625 433.378906 C 316.03125 432.289062 314.042969 432.5 312.945312 433.855469 C 311.851562 435.210938 312.058594 437.195312 313.414062 438.292969 L 340.519531 460.222656 C 341.878906 461.3125 343.867188 461.097656 344.960938 459.746094 Z M 344.960938 459.746094 "/></g></g></g><g clip-rule="nonzero" clip-path="url(#f0c2a2ad17)"><g clip-rule="nonzero" clip-path="url(#52c1e1c88f)"><g clip-rule="nonzero" clip-path="url(#814e43f231)"><path style=" stroke:none;fill-rule:nonzero;fill:#1c62ab;fill-opacity:1;" d="M 391.65625 432.410156 L 387.988281 397.734375 C 387.808594 396 386.253906 394.742188 384.519531 394.925781 C 383.660156 395.019531 382.90625 395.453125 382.398438 396.078125 C 381.894531 396.703125 381.621094 397.523438 381.71875 398.390625 L 385.386719 433.066406 C 385.570312 434.800781 387.121094 436.058594 388.855469 435.875 C 390.585938 435.691406 391.84375 434.136719 391.660156 432.40625 Z M 391.65625 432.410156 "/></g></g></g><g clip-rule="nonzero" clip-path="url(#88df152f68)"><g clip-rule="nonzero" clip-path="url(#079efe64b1)"><g clip-rule="nonzero" clip-path="url(#8b6669046b)"><path style=" stroke:none;fill-rule:nonzero;fill:#1c62ab;fill-opacity:1;" d="M 419.238281 517.96875 L 439.539062 492.789062 L 448.238281 499.800781 L 427.9375 524.980469 C 427.136719 525.96875 425.6875 526.128906 424.699219 525.328125 L 419.585938 521.207031 C 418.597656 520.40625 418.441406 518.957031 419.238281 517.96875 Z M 419.238281 517.96875 "/></g></g></g><g clip-rule="nonzero" clip-path="url(#468d3b751d)"><g clip-rule="nonzero" clip-path="url(#279f8115ba)"><g clip-rule="nonzero" clip-path="url(#a3e77cf8f1)"><path style=" stroke:none;fill-rule:nonzero;fill:#1c62ab;fill-opacity:1;" d="M 384.742188 490.15625 L 405.039062 464.976562 L 413.738281 471.988281 L 393.4375 497.167969 C 392.640625 498.15625 391.191406 498.3125 390.203125 497.515625 L 385.085938 493.390625 C 384.101562 492.59375 383.941406 491.144531 384.742188 490.15625 Z M 384.742188 490.15625 "/></g></g></g><g clip-rule="nonzero" clip-path="url(#226b5eb91d)"><g clip-rule="nonzero" clip-path="url(#ace2b331f2)"><g clip-rule="nonzero" clip-path="url(#ee6ca99505)"><path style=" stroke:none;fill-rule:nonzero;fill:#1c62ab;fill-opacity:1;" d="M 396.257812 523.34375 L 393.066406 520.761719 C 392.113281 520 392.15625 518.375 393.15625 517.125 L 423.320312 479.714844 L 429.949219 485.0625 L 399.785156 522.472656 C 398.777344 523.71875 397.199219 524.109375 396.25 523.339844 Z M 396.257812 523.34375 "/></g></g></g></g></svg>