<?xml version="1.0" standalone="no"?>
<!DOCTYPE svg PUBLIC "-//W3C//DTD SVG 20010904//EN"
 "http://www.w3.org/TR/2001/REC-SVG-20010904/DTD/svg10.dtd">
<svg version="1.0" xmlns="http://www.w3.org/2000/svg"
 width="1500.000000pt" height="1500.000000pt" viewBox="0 0 1500.000000 1500.000000"
 preserveAspectRatio="xMidYMid meet">

<g transform="translate(0.000000,1500.000000) scale(0.100000,-0.100000)"
fill="#000000" stroke="none">
<path d="M4725 11350 c-58 -9 -125 -34 -175 -66 -19 -12 -431 -420 -916 -906
-833 -836 -882 -886 -909 -948 -24 -53 -30 -83 -33 -162 -5 -119 18 -199 83
-286 23 -31 202 -215 396 -408 391 -388 408 -401 556 -426 60 -10 83 -9 146 4
149 33 98 -13 1045 932 481 479 887 890 903 914 89 127 100 298 28 452 -27 58
-67 102 -382 418 -194 194 -378 373 -409 397 -91 68 -222 102 -333 85z"/>
<path d="M5925 9651 c-27 -13 -312 -292 -912 -892 -752 -754 -873 -879 -882
-914 -15 -55 -14 -99 4 -143 20 -48 1012 -1044 1070 -1074 48 -25 124 -27 175
-5 51 23 1774 1750 1795 1799 19 48 19 108 0 156 -22 51 -1014 1046 -1070
1073 -51 24 -129 24 -180 0z"/>
<path d="M2145 8857 c-74 -19 -152 -58 -220 -110 -33 -25 -403 -389 -821 -809
-748 -750 -762 -764 -802 -845 -86 -173 -80 -376 14 -542 37 -64 2678 -2710
2758 -2762 179 -118 432 -118 612 0 38 25 344 324 846 827 682 685 790 797
816 850 46 92 63 164 63 262 0 137 -29 230 -106 336 -24 34 -637 653 -1362
1376 -975 973 -1332 1324 -1374 1348 -94 55 -163 74 -274 78 -60 2 -120 -2
-150 -9z m1126 -1360 c59 -32 100 -92 107 -156 10 -103 24 -87 -614 -723 -373
-372 -598 -589 -622 -600 -47 -22 -114 -23 -155 -2 -42 22 -580 547 -617 602
-35 53 -44 90 -35 148 13 88 110 174 197 174 74 0 106 -24 323 -240 l210 -210
495 496 c332 333 508 502 535 515 55 26 122 24 176 -4z"/>
<path d="M8940 5705 l0 -775 155 0 155 0 0 178 1 177 61 47 c33 26 64 46 68
43 4 -3 78 -104 164 -225 l156 -220 175 0 175 0 -236 316 -236 316 30 32 c132
140 402 440 402 447 0 5 -73 9 -163 9 l-163 0 -154 -167 c-85 -93 -185 -208
-223 -256 -38 -48 -72 -86 -74 -84 -2 3 1 69 6 148 6 79 11 289 11 467 l0 322
-155 0 -155 0 0 -775z"/>
<path d="M11330 5705 l0 -775 155 0 155 0 0 775 0 775 -155 0 -155 0 0 -775z"/>
<path d="M5390 6260 l0 -130 200 0 200 0 0 -600 0 -600 155 0 155 0 0 600 0
600 195 0 195 0 0 130 0 130 -550 0 -550 0 0 -130z"/>
<path d="M10240 5660 l0 -730 150 0 150 0 0 290 0 290 245 0 245 0 0 125 0
125 -245 0 -245 0 0 190 0 190 265 0 265 0 0 125 0 125 -415 0 -415 0 0 -730z"/>
<path d="M7025 6060 c-126 -18 -295 -75 -295 -100 0 -14 89 -190 96 -190 3 0
45 14 92 32 78 28 99 32 199 32 105 1 113 0 138 -24 40 -37 55 -73 55 -133 l0
-54 -157 -6 c-175 -7 -264 -23 -353 -63 -66 -29 -129 -90 -156 -151 -25 -54
-25 -220 -1 -288 56 -162 232 -237 449 -191 87 19 120 37 190 104 32 30 60 53
62 51 2 -2 15 -37 30 -76 l28 -73 104 0 105 0 -3 433 -3 432 -29 63 c-61 132
-186 198 -391 207 -55 2 -127 0 -160 -5z m285 -685 c0 -114 -32 -175 -113
-217 -80 -41 -190 -33 -238 18 -33 35 -35 138 -3 181 41 57 140 87 307 92 l47
1 0 -75z"/>
<path d="M8198 6060 c-232 -28 -353 -152 -335 -347 8 -79 45 -152 103 -199 23
-19 99 -61 170 -94 175 -82 212 -101 240 -127 48 -44 39 -109 -18 -140 -70
-38 -280 -15 -439 47 -27 11 -52 20 -54 20 -3 0 -5 -54 -5 -121 l0 -120 35
-15 c84 -35 170 -48 320 -48 211 -1 304 25 395 110 70 65 93 130 88 249 -7
176 -67 235 -366 360 -157 66 -206 121 -152 175 28 28 60 33 154 28 59 -4 106
-15 174 -41 l94 -35 15 37 c8 20 28 67 44 105 16 38 26 73 22 77 -22 22 -198
69 -292 78 -57 6 -108 10 -115 10 -6 -1 -41 -5 -78 -9z"/>
<path d="M12345 6060 c-220 -26 -373 -156 -429 -365 -9 -33 -19 -105 -22 -160
-24 -391 223 -651 588 -621 324 27 505 259 485 622 -12 218 -103 379 -265 467
-91 50 -229 72 -357 57z m212 -272 c76 -50 109 -162 100 -338 -6 -127 -27
-190 -78 -241 -81 -81 -254 -71 -318 20 -46 64 -55 108 -55 261 0 194 26 264
116 309 63 32 178 27 235 -11z"/>
<path d="M13090 6038 c0 -10 274 -985 306 -1090 5 -16 22 -18 168 -18 l162 0
98 428 c54 235 102 433 106 441 6 11 9 10 13 -5 15 -50 197 -846 197 -861 0
-2 74 -3 165 -3 l164 0 20 68 c47 160 301 1043 301 1048 0 2 -66 3 -147 2
l-148 -3 -33 -120 c-75 -274 -122 -468 -143 -597 -12 -76 -24 -137 -25 -135
-1 1 -14 72 -28 157 -15 85 -57 277 -94 425 l-67 270 -159 3 c-88 1 -163 -1
-167 -5 -5 -5 -38 -123 -74 -263 -66 -253 -115 -492 -115 -559 0 -67 -14 -19
-41 142 -16 89 -59 279 -96 422 l-68 260 -148 3 c-114 2 -147 0 -147 -10z"/>
</g>
</svg>
