<?xml version="1.0" encoding="UTF-8"?>
<svg version="1.1" xmlns="http://www.w3.org/2000/svg" width="906" height="392">
<path d="M0 0 C298.98 0 597.96 0 906 0 C906 129.36 906 258.72 906 392 C607.02 392 308.04 392 0 392 C0 262.64 0 133.28 0 0 Z " fill="#FCFCFC" transform="translate(0,0)"/>
<path d="M0 0 C9.19970947 0.11603237 18.82705345 6.87412586 25.359375 12.82421875 C29.12638436 17.16843116 29.48916595 21.37336622 29.3671875 26.984375 C28.23163501 34.18153866 24.41916609 40.27712721 20.8125 46.5 C20.11374756 47.71695557 20.11374756 47.71695557 19.40087891 48.95849609 C14.04227959 58.23360891 8.42556022 67.22989241 2.2265625 75.96484375 C-2.75030082 83.11988167 -7.1675625 90.66610783 -11.71289062 98.09863281 C-12.96877134 100.14380544 -14.23638224 102.18033915 -15.515625 104.2109375 C-20.47027738 112.11107219 -24.88753706 120.23172019 -29.1875 128.5 C-13.13336798 116.60081652 -13.13336798 116.60081652 2.3125 103.9375 C23.99158078 85.12136587 23.99158078 85.12136587 35.92578125 85.29296875 C41.95097993 85.72508719 46.07116388 87.32916524 50.1875 91.8125 C53.88939878 96.60082559 55.5725638 101.41948963 54.8125 107.5 C48.12110202 121.79525931 24.65822566 129.25846092 11.08496094 135.24536133 C4.73035622 138.05270382 -1.46709747 141.08623821 -7.6328125 144.28515625 C-10.1875 145.5 -10.1875 145.5 -12.1875 145.5 C-10.80140929 148.98312497 -9.40183419 152.46068462 -8 155.9375 C-7.61263672 156.91138672 -7.22527344 157.88527344 -6.82617188 158.88867188 C-3.67807303 166.66785828 -0.16649527 174.18273892 4.875 180.9375 C5.34035156 181.57558594 5.80570313 182.21367187 6.28515625 182.87109375 C9.07516133 185.84662347 11.486599 186.45581003 15.5 187 C20.20026734 186.92984676 23.0440401 184.64986229 26.63671875 181.8125 C29.24445184 180.239433 30.81657935 180.17335788 33.8125 180.5 C34.1425 180.83 34.4725 181.16 34.8125 181.5 C34.57014919 194.58694391 25.03115292 205.20527793 16.2578125 214.0859375 C9.90862331 220.04915774 5.27126484 223.5220151 -3.625 223.9375 C-10.595521 223.70833219 -15.51414281 221.57113202 -20.3125 216.5 C-32.69723837 200.70109051 -37.58224085 178.34334827 -43.1875 159.5 C-47.97537234 165.71369677 -50.74251544 173.04557057 -53.390625 180.38671875 C-54.32960823 182.87686544 -55.38461716 185.30580768 -56.4375 187.75 C-59.46095101 194.94214862 -61.99245889 202.29714475 -64.5390625 209.66796875 C-64.81524414 210.46638184 -65.09142578 211.26479492 -65.37597656 212.08740234 C-65.925553 213.72125143 -66.4529698 215.36269295 -66.95996094 217.01025391 C-67.2077832 217.80737793 -67.45560547 218.60450195 -67.7109375 219.42578125 C-67.92411621 220.13774658 -68.13729492 220.84971191 -68.35693359 221.58325195 C-69.32237269 223.81125383 -70.28627965 224.99498642 -72.1875 226.5 C-79.11435625 227.75942841 -83.61227392 225.21623893 -89.46875 221.578125 C-94.13731455 218.00962451 -96.35917253 213.98498242 -98.1875 208.5 C-98.81051048 200.62850222 -97.93333362 193.88759999 -95.1875 186.5 C-95.5175 186.83 -95.8475 187.16 -96.1875 187.5 C-96.86039063 188.16128906 -97.53328125 188.82257813 -98.2265625 189.50390625 C-104.05283525 195.26317028 -104.05283525 195.26317028 -109.5 201.375 C-118.2136543 211.43865708 -129.61383237 223.35946086 -143.60546875 224.73828125 C-149.96977515 224.90883389 -155.13746769 224.66574395 -160.1875 220.5 C-166.45558102 213.37718066 -169.58722212 206.37404587 -169.390625 196.85546875 C-169.05620314 192.97746145 -168.18210785 189.25642073 -167.1875 185.5 C-168.18330078 186.49580078 -168.18330078 186.49580078 -169.19921875 187.51171875 C-177.1875 195.5 -177.1875 195.5 -179.80859375 198.10546875 C-181.19360479 199.49957674 -182.56476051 200.90826823 -183.8984375 202.3515625 C-193.86511071 212.97332222 -207.0496135 223.46590632 -221.984375 224.73828125 C-229.74571496 224.93334138 -235.85905274 224.15061436 -241.93359375 219.02734375 C-250.67156792 209.80997948 -250.62573942 199.53365621 -250.328125 187.5234375 C-250.2840218 186.18219766 -250.23825127 184.84100474 -250.1875 183.5 C-256.07148068 188.62475737 -261.65703849 193.9392851 -267.125 199.5 C-291.0177568 223.63794307 -291.0177568 223.63794307 -307 223.9375 C-313.365261 223.83752208 -317.54725372 222.94053948 -322.1875 218.5 C-328.82373091 210.60826594 -330.01333835 201.50482854 -329.1875 191.5 C-328.68992077 188.73141811 -328.01668587 186.19485409 -327.1875 183.5 C-331.49221413 187.09001064 -335.52703038 190.77770424 -339.42504883 194.80297852 C-352.65940836 208.46933587 -368.71826725 224.22208097 -388.75 224.9375 C-395.68112812 224.72771032 -400.20541878 223.5679848 -405.0859375 218.546875 C-412.56575684 209.52059512 -415.38496222 200.80463304 -415.25 189.1875 C-415.24548828 188.44693359 -415.24097656 187.70636719 -415.23632812 186.94335938 C-415.22462175 185.12887101 -415.20668898 183.31442466 -415.1875 181.5 C-415.8475 181.5 -416.5075 181.5 -417.1875 181.5 C-417.41050781 182.05171875 -417.63351562 182.6034375 -417.86328125 183.171875 C-419.60304097 186.2305676 -421.84514482 188.3073812 -424.375 190.75 C-427.6181462 193.91280271 -430.77728197 197.08581617 -433.6875 200.5625 C-442.61319356 210.93675481 -454.90388731 222.25350149 -469.0546875 223.96875 C-470.39022687 224.00298616 -471.72658391 224.0128732 -473.0625 224 C-473.76358887 223.99355469 -474.46467773 223.98710937 -475.18701172 223.98046875 C-482.40631713 223.72651494 -487.05762746 221.80639463 -491.98828125 216.59765625 C-497.18491083 210.13597604 -498.85738196 203.70525913 -498.671875 195.46875 C-495.97272437 173.3531287 -482.91524619 151.60383832 -472.95141602 131.99487305 C-469.18482713 124.58215324 -465.6951698 117.03775851 -462.1875 109.5 C-461.5275 109.5 -460.8675 109.5 -460.1875 109.5 C-460.04054688 108.95472656 -459.89359375 108.40945312 -459.7421875 107.84765625 C-457.95985794 101.85534135 -455.80699429 95.88801636 -451.1875 91.5 C-446.49980308 89.9109502 -442.09198313 91.32191692 -437.625 93.0625 C-431.68010595 96.00891859 -426.87084649 99.97498027 -423.1875 105.5 C-421.80403022 109.65040935 -421.14139115 113.25699183 -423.0546875 117.359375 C-424.06855015 119.091082 -425.12685733 120.79654359 -426.1875 122.5 C-426.94790572 124.76985894 -426.94790572 124.76985894 -427.1875 126.5 C-427.8475 126.5 -428.5075 126.5 -429.1875 126.5 C-429.35448395 127.04876297 -429.5214679 127.59752594 -429.69351196 128.16291809 C-431.4815341 133.8041696 -433.73872003 138.95328254 -436.4609375 144.19921875 C-437.29435816 145.83784622 -438.12768861 147.47651956 -438.9609375 149.11523438 C-440.25712106 151.64582033 -441.55604523 154.17496164 -442.85742188 156.70288086 C-452.58583845 173.76876494 -452.58583845 173.76876494 -456.1875 192.5 C-442.65490963 188.55134093 -433.22501132 176.76301761 -424.11523438 166.62939453 C-422.31614198 164.64209921 -420.4846008 162.69164449 -418.640625 160.74609375 C-411.88098753 153.45729274 -408.10847076 147.46917586 -406.1875 137.5 C-405.5275 137.5 -404.8675 137.5 -404.1875 137.5 C-403.96320313 136.27539062 -403.73890625 135.05078125 -403.5078125 133.7890625 C-402.10763899 127.5140292 -399.60124659 121.76230277 -397.0625 115.875 C-396.5660498 114.71637451 -396.06959961 113.55774902 -395.55810547 112.36401367 C-392.16744374 104.54467666 -388.59176643 96.97129634 -384.35839844 89.56787109 C-382.95375865 87.08719991 -381.59140383 84.58481442 -380.2265625 82.08203125 C-373.92177138 70.61134222 -367.21102278 59.73749102 -359.43457031 49.20996094 C-357.78854999 46.95296674 -356.24207989 44.63310477 -354.6875 42.3125 C-343.54091919 26.39268751 -327.70758391 6.48056024 -308.1875 1.5 C-300.59387749 0.25222165 -294.42362287 2.02719463 -288.1875 6.5 C-283.24299386 11.5670972 -279.92342801 17.23827228 -279.8125 24.4375 C-280.72768235 58.89411541 -312.52627323 99.5084583 -335.1875 123.5 C-336.29677865 124.78727918 -337.40106091 126.07888284 -338.5 127.375 C-347.31590313 137.45322644 -357.02611923 146.80836307 -368.02734375 154.48046875 C-369.37505859 155.44919922 -369.37505859 155.44919922 -370.75 156.4375 C-371.55566406 156.98277344 -372.36132812 157.52804688 -373.19140625 158.08984375 C-378.25446342 164.20316327 -377.5272585 173.74008883 -377.5 181.3125 C-377.51611328 182.22708984 -377.53222656 183.14167969 -377.54882812 184.08398438 C-377.62243031 190.86293363 -377.62243031 190.86293363 -374.1875 196.5 C-370.87619357 197.25638979 -369.31699843 196.56379319 -366.27734375 195.06640625 C-353.62712199 187.02481546 -342.57633486 178.2959445 -332.1875 167.5 C-331.31351563 166.62859375 -330.43953125 165.7571875 -329.5390625 164.859375 C-326.23661052 161.54595142 -323.20101677 158.07617478 -320.1875 154.5 C-319.43049805 153.60506836 -318.67349609 152.71013672 -317.89355469 151.78808594 C-311.68559363 144.11827392 -307.39715991 136.44010179 -303.534729 127.38256836 C-301.98267581 123.7442766 -300.37250742 120.13169567 -298.76953125 116.515625 C-298.30592194 115.46375 -298.30592194 115.46375 -297.83294678 114.390625 C-295.3642888 108.81628929 -292.70350706 103.36892708 -289.8125 98 C-289.26807251 96.98824707 -289.26807251 96.98824707 -288.71264648 95.95605469 C-286.37273102 91.68523102 -286.37273102 91.68523102 -285.1875 90.5 C-277.61004564 89.77833768 -272.53708322 91.30885596 -266.1875 95.5 C-261.77287423 99.14898956 -258.06285505 102.79767864 -256.7109375 108.515625 C-256.15900122 116.82371845 -260.18202906 123.16103037 -263.98925781 130.21728516 C-266.12650644 134.28885702 -268.05326692 138.45988728 -270 142.625 C-272.3415624 147.61253297 -274.6995594 152.58319919 -277.1875 157.5 C-286.24594851 174.40696741 -286.24594851 174.40696741 -292.1875 192.5 C-283.44362693 189.19675906 -275.59103872 184.31667025 -269.1875 177.5 C-268.5275 177.5 -267.8675 177.5 -267.1875 177.5 C-267.1875 176.84 -267.1875 176.18 -267.1875 175.5 C-264.8125 172.875 -264.8125 172.875 -262.1875 170.5 C-261.5275 170.5 -260.8675 170.5 -260.1875 170.5 C-259.94128906 169.92378906 -259.69507813 169.34757813 -259.44140625 168.75390625 C-257.98587901 166.1375847 -256.30141269 164.49108164 -254.125 162.4375 C-249.80536239 158.22203371 -245.99608758 153.75675721 -242.2421875 149.03515625 C-240.6054644 147.01570132 -238.92658537 145.17738432 -237.125 143.3125 C-232.66539187 138.17345018 -230.06694774 131.61731696 -227.16015625 125.52587891 C-225.70650632 122.4981713 -224.19661867 119.50044112 -222.6875 116.5 C-221.96046875 115.0459375 -221.96046875 115.0459375 -221.21875 113.5625 C-220.8784375 112.881875 -220.538125 112.20125 -220.1875 111.5 C-219.5275 111.5 -218.8675 111.5 -218.1875 111.5 C-217.5275 109.19 -216.8675 106.88 -216.1875 104.5 C-216.92355469 104.55800781 -217.65960937 104.61601562 -218.41796875 104.67578125 C-226.42323201 105.04590571 -226.42323201 105.04590571 -230.25 102.3125 C-233.86794223 97.06064838 -234.43839907 93.08674609 -234.6484375 86.8046875 C-234.1875 84.5 -234.1875 84.5 -232.41796875 82.765625 C-223.5608778 77.73988512 -211.09345874 78.88647478 -201.1875 78.5 C-200.8575 77.18 -200.5275 75.86 -200.1875 74.5 C-199.5275 74.5 -198.8675 74.5 -198.1875 74.5 C-197.91437988 73.62835205 -197.64125977 72.7567041 -197.35986328 71.85864258 C-195.44703915 66.37869224 -192.71563314 61.34000515 -190.0625 56.1875 C-189.51851562 55.09759766 -188.97453125 54.00769531 -188.4140625 52.88476562 C-179.87308425 36.29172027 -179.87308425 36.29172027 -172.08203125 33.3125 C-162.67174983 33.92207289 -153.86720412 39.04957634 -147.1875 45.5 C-144.70326297 49.22635555 -145.00056807 50.77377121 -145.59082031 55.04833984 C-146.61762224 59.26730261 -148.7547854 62.67441735 -151.0625 66.3125 C-151.50980469 67.04919922 -151.95710938 67.78589844 -152.41796875 68.54492188 C-154.5252641 71.98559438 -156.67798695 75.33402493 -159.1875 78.5 C-158.35347656 78.46519531 -157.51945312 78.43039063 -156.66015625 78.39453125 C-148.38714831 78.19552419 -141.64647898 78.56359921 -134.625 83.1875 C-132.83113476 86.07328321 -132.38466932 88.15035254 -132.5234375 91.53125 C-133.65353891 94.88166831 -136.23660702 96.00087199 -139.2421875 97.58984375 C-139.88414062 97.89019531 -140.52609375 98.19054687 -141.1875 98.5 C-141.8475 98.83 -142.5075 99.16 -143.1875 99.5 C-145.49079655 99.60237285 -147.79623599 99.65786736 -150.1015625 99.69140625 C-164.31392372 99.5305939 -164.31392372 99.5305939 -177.33447266 103.93408203 C-180.32983292 107.5368716 -181.41991398 111.77530963 -182.53125 116.25634766 C-183.64851858 120.07617588 -185.66586927 123.37025873 -187.625 126.8125 C-190.95497828 133.00498993 -194.09152729 139.28239645 -197.125 145.625 C-197.69142212 146.79736206 -197.69142212 146.79736206 -198.26928711 147.9934082 C-200.37061035 152.43805429 -201.97981561 156.732492 -203.1875 161.5 C-203.8475 161.5 -204.5075 161.5 -205.1875 161.5 C-205.30996094 162.36109375 -205.43242188 163.2221875 -205.55859375 164.109375 C-206.18355238 167.47871715 -207.13762729 170.51255685 -208.25 173.75 C-210.01322135 179.35383802 -211.16160873 184.63269395 -210.1875 190.5 C-209.5275 191.49 -208.8675 192.48 -208.1875 193.5 C-201.86499043 194.38924185 -198.44406571 191.52941704 -193.46484375 188.02734375 C-182.91444308 180.07590576 -173.95674582 170.31999865 -165.1875 160.5 C-164.54296875 159.78199219 -163.8984375 159.06398437 -163.234375 158.32421875 C-161.52992293 156.40073662 -159.85554543 154.45513822 -158.1875 152.5 C-156.91326172 151.02660156 -156.91326172 151.02660156 -155.61328125 149.5234375 C-154.69987549 148.45367568 -153.78711428 147.38336319 -152.875 146.3125 C-152.03324219 145.32894531 -151.19148438 144.34539062 -150.32421875 143.33203125 C-148.36404488 140.73399458 -147.20303893 138.56905963 -146.1875 135.5 C-145.5275 135.5 -144.8675 135.5 -144.1875 135.5 C-143.93484375 134.66597656 -143.6821875 133.83195313 -143.421875 132.97265625 C-142.04670572 129.10390469 -140.31554585 125.57998589 -138.4375 121.9375 C-134.84285002 114.86692242 -131.45523796 107.72863247 -128.1875 100.5 C-127.5275 100.5 -126.8675 100.5 -126.1875 100.5 C-125.919375 99.241875 -125.65125 97.98375 -125.375 96.6875 C-124.77069122 94.34890779 -124.237272 92.58382652 -123 90.5 C-119.91696756 88.79901658 -117.66072779 89.10786138 -114.1875 89.5 C-106.72532402 91.833578 -100.69551293 95.85933606 -96.25 102.3125 C-92.96684721 112.16195838 -96.9106595 119.69821666 -101.18652344 128.50292969 C-103.23139482 132.58269747 -105.4315163 136.57339339 -107.640625 140.56640625 C-109.38372848 143.87214038 -110.71174201 147.21584567 -112.02734375 150.70703125 C-113.56252442 154.40283658 -115.37183866 157.93549629 -117.1875 161.5 C-122.33771734 171.68493781 -125.86378695 181.26872025 -128.1875 192.5 C-121.57334193 189.75450042 -117.02894493 185.90047059 -111.83984375 180.99609375 C-109.69793183 178.98036221 -107.52478491 177.10860804 -105.25 175.25 C-99.80766528 170.51850083 -95.33560069 164.85401022 -90.7265625 159.33300781 C-89.23837733 157.56059439 -87.73266107 155.80514717 -86.21875 154.0546875 C-76.62860521 143.0175374 -76.62860521 143.0175374 -69.1875 130.5 C-68.5275 130.5 -67.8675 130.5 -67.1875 130.5 C-67.07196777 129.77925293 -66.95643555 129.05850586 -66.83740234 128.31591797 C-66.161 125.38517992 -65.15961262 123.11710106 -63.7890625 120.4453125 C-63.30953125 119.50042969 -62.83 118.55554688 -62.3359375 117.58203125 C-61.83320312 116.60621094 -61.33046875 115.63039063 -60.8125 114.625 C-57.756065 108.64744093 -54.73259032 102.71556071 -52.1875 96.5 C-51.5275 96.5 -50.8675 96.5 -50.1875 96.5 C-50.1875 95.18 -50.1875 93.86 -50.1875 92.5 C-49.5275 92.5 -48.8675 92.5 -48.1875 92.5 C-47.90841797 91.62110107 -47.62933594 90.74220215 -47.34179688 89.83666992 C-46.29357099 86.80661426 -45.10213963 84.00201722 -43.71875 81.11328125 C-43.23510986 80.10217285 -42.75146973 79.09106445 -42.25317383 78.04931641 C-41.47816528 76.44709229 -41.47816528 76.44709229 -40.6875 74.8125 C-40.15213623 73.70052246 -39.61677246 72.58854492 -39.06518555 71.44287109 C-35.45840062 63.99836437 -31.69511893 56.65646849 -27.78955078 49.36523438 C-23.27599538 40.89290328 -19.22420087 32.20718327 -15.1875 23.5 C-14.5275 23.5 -13.8675 23.5 -13.1875 23.5 C-12.93097656 22.68144531 -12.67445313 21.86289062 -12.41015625 21.01953125 C-11.0062415 16.97823033 -9.3512771 13.09920831 -7.625 9.1875 C-7.30853516 8.45982422 -6.99207031 7.73214844 -6.66601562 6.98242188 C-3.86732641 0.60663944 -3.86732641 0.60663944 0 0 Z " fill="#5FAEE3" transform="translate(844.1875,26.5)"/>
<path d="M0 0 C1.38123963 1.96722008 2.71488126 3.96868328 4 6 C5.32373722 7.01992868 6.68137816 7.99673585 8.0625 8.9375 C12.05306286 11.8133805 13.70148144 14.13055539 15 19 C16.24797399 27.65683221 13.45008404 35.7965936 11 44 C10.34 44 9.68 44 9 44 C8.88301758 44.6904541 8.76603516 45.3809082 8.64550781 46.09228516 C7.91748655 49.37168501 6.84686606 52.37598045 5.671875 55.5234375 C5.32555023 56.45828476 5.32555023 56.45828476 4.972229 57.41201782 C4.23500601 59.40100791 3.49295345 61.38814403 2.75 63.375 C1.7833667 65.96500672 0.81959262 68.55604518 -0.140625 71.1484375 C-0.37930298 71.79230408 -0.61798096 72.43617065 -0.8638916 73.09954834 C-2.99060808 78.88249388 -4.92412713 84.72078869 -6.81542969 90.58447266 C-7.82207036 93.48696709 -8.98122144 96.25347597 -10.21270752 99.06454468 C-11.80464799 102.97812156 -12.99581145 107.03092312 -14.25 111.0625 C-14.69907715 112.48767944 -14.69907715 112.48767944 -15.15722656 113.94165039 C-16.10823576 116.96003855 -17.05468756 119.97982323 -18 123 C-19.2458848 126.98047481 -20.49649779 130.95941831 -21.75 134.9375 C-22.03133789 135.84185791 -22.31267578 136.74621582 -22.60253906 137.67797852 C-23.77181931 141.38755147 -24.97935783 144.9524324 -26.52954102 148.5246582 C-28.34785392 152.82213192 -29.56063838 157.16967879 -30.77734375 161.66796875 C-31.02996475 162.58403397 -31.28258575 163.50009918 -31.54286194 164.44392395 C-32.34576153 167.35718565 -33.14218737 170.27215875 -33.9375 173.1875 C-34.98432918 177.01541923 -36.0347912 180.84230774 -37.08984375 184.66796875 C-37.34234894 185.58514679 -37.59485413 186.50232483 -37.85501099 187.44729614 C-39.45612531 193.20665159 -41.25912333 198.86029122 -43.21118164 204.51098633 C-44.43338325 208.36748445 -45.13421842 212.25828649 -45.75 216.25 C-45.87503906 217.00667969 -46.00007812 217.76335937 -46.12890625 218.54296875 C-46.42800413 220.36056357 -46.71536854 222.18008368 -47 224 C-47.66 224 -48.32 224 -49 224 C-48.95875 224.886875 -48.9175 225.77375 -48.875 226.6875 C-48.875 233.41385521 -49.23211747 241.34817621 -53 247 C-55.56640625 247.2578125 -55.56640625 247.2578125 -58.5625 247.125 C-60.37410084 247.05432637 -62.18703048 247.00582013 -64 247 C-64.33 247.33 -64.66 247.66 -65 248 C-71.171048 248.52649814 -78.22334786 248.46066959 -84 246 C-84.33 245.01 -84.66 244.02 -85 243 C-86.96921275 242.50769681 -88.94075988 242.0217452 -90.92578125 241.59765625 C-93.90818658 240.73831912 -95.79676249 239.13647274 -98 237 C-101.14298688 230.71402625 -98.64704173 222.28882736 -96.6875 215.9375 C-96.4311377 215.07552002 -96.17477539 214.21354004 -95.91064453 213.32543945 C-93.20978384 204.40155648 -90.29242572 195.54251973 -87.375 186.6875 C-87.13961517 185.96867645 -86.90423035 185.24985291 -86.66171265 184.50924683 C-84.22352683 177.0889071 -81.78455849 169.86728571 -78 163 C-78.56920166 163.12117187 -79.13840332 163.24234375 -79.72485352 163.3671875 C-82.33592655 163.91872928 -84.94913446 164.45942963 -87.5625 165 C-88.45775391 165.19078125 -89.35300781 165.3815625 -90.27539062 165.578125 C-95.29261421 166.60729907 -99.87899545 167.22479032 -105 167 C-105 167.66 -105 168.32 -105 169 C-106.16015625 168.98453125 -107.3203125 168.9690625 -108.515625 168.953125 C-114.48085604 169.20268948 -120.47892763 169.48669673 -124.90136719 173.89550781 C-128.46782723 178.76450108 -131.13783014 184.12081416 -133.77294922 189.53564453 C-135.38649069 192.7762111 -137.24057351 195.76066415 -139.1875 198.8125 C-141.21400939 202.06909224 -143.20341429 205.3353752 -145.1015625 208.66796875 C-150.23044422 217.60919721 -155.94061147 225.47943244 -163 233 C-163.77859375 233.83402344 -164.5571875 234.66804687 -165.359375 235.52734375 C-172.71998871 242.7521072 -183.60669612 249.56826936 -194 251 C-194.74121094 251.10441406 -195.48242188 251.20882813 -196.24609375 251.31640625 C-198.49565347 251.5690306 -200.74577273 251.79326311 -203 252 C-204.11375 252.103125 -205.2275 252.20625 -206.375 252.3125 C-209 252 -209 252 -210.875 250.125 C-212 248 -212 248 -212 246 C-212.66 246 -213.32 246 -214 246 C-214.46474032 242.04970731 -213.63292622 239.84110351 -211.31640625 236.63671875 C-209.89293616 234.86688502 -208.39616378 233.18658584 -206.875 231.5 C-203.19518196 227.38679868 -200.04050706 222.98239915 -196.90380859 218.45117188 C-194.46520615 214.95506883 -191.90063793 211.61254657 -189.2109375 208.3046875 C-184.71166916 202.72701218 -180.62561567 196.8996591 -176.5625 191 C-175.84384766 189.96488281 -175.12519531 188.92976562 -174.38476562 187.86328125 C-170.95458001 183.0756705 -170.95458001 183.0756705 -168 178 C-168.58007812 178.04640625 -169.16015625 178.0928125 -169.7578125 178.140625 C-175.42309292 178.40238713 -178.63985216 177.97257915 -183 174 C-187.33024104 168.406772 -192 162.22368618 -192 155 C-192.66 155 -193.32 155 -194 155 C-194.25 151.6875 -194.25 151.6875 -194 148 C-191.81673246 145.69857915 -190.61657385 145.01777679 -187.42578125 144.92578125 C-186.39839844 145.05339844 -185.37101562 145.18101562 -184.3125 145.3125 C-177.19858154 145.98858518 -170.14548173 146.1601108 -163 146.1875 C-161.91372314 146.20014893 -160.82744629 146.21279785 -159.70825195 146.22583008 C-152.0748671 146.40433926 -152.0748671 146.40433926 -145 144 C-143.26337958 141.64924478 -141.92137667 139.54824366 -140.5625 137 C-139.78415595 135.62205242 -139.00289623 134.24574777 -138.21875 132.87109375 C-137.84105469 132.20190918 -137.46335937 131.53272461 -137.07421875 130.84326172 C-135.69895225 128.48342944 -134.16486691 126.27331284 -132.5625 124.0625 C-129.62837521 119.97760609 -126.95315336 115.77691812 -124.3125 111.5 C-118.35709447 101.87100617 -112.04589998 92.4880232 -105.71972656 83.10009766 C-104.51946303 81.31807868 -103.32144614 79.53458403 -102.125 77.75 C-101.73054688 77.16226807 -101.33609375 76.57453613 -100.9296875 75.96899414 C-98.43433375 72.22546997 -96.00922379 68.44324217 -93.6171875 64.6328125 C-87.86579535 55.47127519 -82.12575531 46.50779151 -75.39453125 38.03515625 C-72.65454032 34.56211717 -70.02858232 31.0222949 -67.4375 27.4375 C-67.00727539 26.85291016 -66.57705078 26.26832031 -66.13378906 25.66601562 C-63.83918659 22.52606419 -63.83918659 22.52606419 -62.53515625 18.91015625 C-61.65853651 15.78119965 -59.34256266 14.17026668 -57 12 C-56.16082031 11.18660156 -55.32164062 10.37320312 -54.45703125 9.53515625 C-40.19933 -3.79589972 -17.89909669 -13.53346335 0 0 Z " fill="#FE9C2A" transform="translate(221,14)"/>
<path d="M0 0 C3.17855334 2.49607117 6.26973447 5.01253554 9 8 C9 8.66 9 9.32 9 10 C10.81303804 8.52149287 12.62541598 7.04217625 14.4375 5.5625 C15.44683594 4.73878906 16.45617187 3.91507813 17.49609375 3.06640625 C19.29783961 1.58798996 19.29783961 1.58798996 21 0 C29.02518064 -0.65714879 34.44303833 2.71772674 41 7 C44.66524465 10.23852178 47.78359289 14.38580206 48.1953125 19.359375 C48.17210937 20.14828125 48.14890625 20.9371875 48.125 21.75 C48.10695313 22.54921875 48.08890625 23.3484375 48.0703125 24.171875 C48.04710937 24.77515625 48.02390625 25.3784375 48 26 C47.34 26 46.68 26 46 26 C45.72220703 26.72380859 45.44441406 27.44761719 45.15820312 28.19335938 C44.05732727 30.86108047 42.82462918 33.36023239 41.46875 35.90625 C40.98792969 36.81503906 40.50710938 37.72382813 40.01171875 38.66015625 C39.00390625 40.55338542 37.99609375 42.44661458 36.98828125 44.33984375 C36.50746094 45.24863281 36.02664063 46.15742188 35.53125 47.09375 C35.09361328 47.91552734 34.65597656 48.73730469 34.20507812 49.58398438 C32.99279221 52.01445063 32.00385585 54.47758584 31 57 C30.23601744 58.55093583 29.45551337 60.09382372 28.66015625 61.62890625 C25.9689828 66.95894944 23.66953606 72.40220638 21.4375 77.9375 C21.06431641 78.84951172 20.69113281 79.76152344 20.30664062 80.70117188 C18.45755005 85.25154258 16.68860454 89.81623103 15.03515625 94.44140625 C13.70625131 98.14265983 12.27794999 101.7721475 10.73828125 105.390625 C6.93711036 114.3992981 3.60116974 123.58951265 0.1875 132.75 C-0.512164 134.62247274 -1.21203224 136.49486918 -1.91210938 138.3671875 C-3.6104273 142.91058266 -5.30598332 147.45499945 -7 152 C-7.66 152 -8.32 152 -9 152 C-9.12375 152.52464844 -9.2475 153.04929687 -9.375 153.58984375 C-17.00516879 182.25066527 -39.001142 212.02668823 -64.18359375 227.40234375 C-80.19195093 236.48336745 -98.1943789 240.35227041 -116.25 235.375 C-122.74262746 233.0373237 -126.93069621 229.87032461 -130.9375 224.3125 C-132 222 -132 222 -132 219 C-132.66 219 -133.32 219 -134 219 C-134.81033937 209.36596523 -132.9840887 203.91572921 -126.9453125 196.46484375 C-110.50231468 177.60375801 -89.06640555 166.58827138 -66.62890625 156.47265625 C-64.7237217 155.60920597 -62.8195841 154.74356445 -60.91680908 153.87481689 C-59.61021375 153.27849686 -58.3023352 152.68498239 -56.99334717 152.09393311 C-55.03769987 151.2036957 -53.09430333 150.29074203 -51.15234375 149.37109375 C-49.44872681 148.57916626 -49.44872681 148.57916626 -47.71069336 147.77124023 C-44.64537453 145.76827814 -43.93589283 144.48110554 -43 141 C-42.34 141 -41.68 141 -41 141 C-40.01 137.04 -40.01 137.04 -39 133 C-38.34 133 -37.68 133 -37 133 C-36.88213135 132.29786377 -36.7642627 131.59572754 -36.64282227 130.87231445 C-35.94628696 127.75999471 -34.91219758 124.99846239 -33.71484375 122.04296875 C-33.26689453 120.93115234 -32.81894531 119.81933594 -32.35742188 118.67382812 C-31.88884766 117.52333984 -31.42027344 116.37285156 -30.9375 115.1875 C-30.46505859 114.01767578 -29.99261719 112.84785156 -29.50585938 111.64257812 C-28.34111284 108.76012457 -27.17236766 105.87936035 -26 103 C-26.55719727 103.71091797 -27.11439453 104.42183594 -27.68847656 105.15429688 C-40.3846517 121.24314803 -56.80953945 139.58218378 -78 143 C-86.87666173 143.79643784 -94.27984908 142.50621738 -101.3125 136.8125 C-107.71367334 130.7676544 -110.62389363 122.84542227 -111.30078125 114.125 C-111.77114398 81.40514575 -96.15953439 51.36961135 -74 28 C-73.18273437 27.05898437 -72.36546875 26.11796875 -71.5234375 25.1484375 C-55.49094497 6.71332074 -24.7138889 -18.16687623 0 0 Z " fill="#60AFE4" transform="translate(312,110)"/>
<path d="M0 0 C3.65044162 0.00008072 7.30075628 -0.00679062 10.95117188 -0.02050781 C43.66969513 -0.14131404 76.23812834 0.94064442 108.82568359 3.99780273 C109.72292145 4.07978912 110.6201593 4.16177551 111.54458618 4.24624634 C158.80619875 8.60331789 158.80619875 8.60331789 162.38818359 12.18530273 C163.95319364 12.55370666 165.530363 12.87069378 167.11083984 13.16577148 C168.11252197 13.35719727 169.1142041 13.54862305 170.14624023 13.74584961 C171.23670654 13.95274414 172.32717285 14.15963867 173.45068359 14.37280273 C191.71670026 17.93792956 209.72115701 22.31361449 227.38818359 28.18530273 C227.38818359 28.84530273 227.38818359 29.50530273 227.38818359 30.18530273 C228.15130859 30.47405273 228.91443359 30.76280273 229.70068359 31.06030273 C232.38818359 32.18530273 232.38818359 32.18530273 235.38818359 34.18530273 C235.05818359 35.83530273 234.72818359 37.48530273 234.38818359 39.18530273 C225.33572288 38.79924191 216.43652579 37.97701919 207.45849609 36.77124023 C194.25786052 35.06572895 181.03884636 34.03663727 167.76318359 33.12280273 C166.55789001 33.03881226 165.35259644 32.95482178 164.11077881 32.86828613 C158.03385027 32.44554849 151.95647344 32.03047595 145.87841797 31.62426758 C141.27916241 31.3162149 136.68197769 30.98835268 132.08529663 30.64434814 C109.04334815 28.94838958 85.97943548 29.00518942 62.88818359 28.99780273 C61.64040005 28.99691902 61.64040005 28.99691902 60.36740875 28.99601746 C55.53459277 28.99310141 50.70186522 28.9970865 45.86906815 29.0112896 C44.37448063 29.01528311 42.8798884 29.01780899 41.38529587 29.01878548 C39.31263913 29.02092366 37.24010966 29.0295531 35.16748047 29.04003906 C33.99858276 29.04385086 32.82968506 29.04766266 31.62536621 29.05158997 C28.46043717 29.18231828 25.50237897 29.62743198 22.38818359 30.18530273 C20.8797112 30.32512623 19.36866176 30.43999405 17.85620117 30.52661133 C16.58278618 30.60226318 16.58278618 30.60226318 15.28364563 30.67944336 C14.37583847 30.73036133 13.46803131 30.7812793 12.53271484 30.83374023 C10.54637609 30.95123654 8.56004841 31.06892006 6.57373047 31.18676758 C5.01513306 31.27773712 5.01513306 31.27773712 3.42504883 31.37054443 C-38.23233922 33.82213865 -80.04365993 36.8579486 -121.09248352 44.70762634 C-128.23049329 46.06102381 -135.38542999 47.32548074 -142.53692627 48.6053009 C-172.16382645 53.88187302 -172.16382645 53.88187302 -201.61181641 60.06030273 C-202.82385742 60.33382568 -204.03589844 60.60734863 -205.28466797 60.88916016 C-210.66825095 62.14121932 -215.87277688 63.56510758 -221.08764648 65.38598633 C-224.96133493 66.61264809 -228.90951752 67.51935078 -232.85612488 68.47994995 C-238.6961907 69.91984297 -244.47754491 71.53319939 -250.25634766 73.20092773 C-251.1681076 73.46393677 -252.07986755 73.7269458 -253.01925659 73.9979248 C-256.78726284 75.08764208 -260.55391249 76.18198225 -264.32006836 77.27807617 C-267.110375 78.08902752 -269.90202633 78.89520921 -272.69384766 79.70092773 C-273.54686966 79.95086487 -274.39989166 80.200802 -275.27876282 80.45831299 C-276.06776474 80.68565125 -276.85676666 80.9129895 -277.66967773 81.1472168 C-278.36088211 81.34833069 -279.05208649 81.54944458 -279.76423645 81.75665283 C-281.61181641 82.18530273 -281.61181641 82.18530273 -284.61181641 82.18530273 C-284.61181641 82.84530273 -284.61181641 83.50530273 -284.61181641 84.18530273 C-285.42521484 84.42128174 -286.23861328 84.65726074 -287.07666016 84.90039062 C-288.22263672 85.23288818 -289.36861328 85.56538574 -290.54931641 85.90795898 C-291.17295074 86.08890106 -291.79658508 86.26984314 -292.43911743 86.45626831 C-295.90880616 87.46307972 -299.37835029 88.47038598 -302.84765625 89.47851562 C-304.27685444 89.89380236 -305.70605367 90.30908554 -307.13525391 90.72436523 C-307.85063324 90.93224167 -308.56601257 91.1401181 -309.30307007 91.35429382 C-313.81354386 92.66445591 -318.3255014 93.96937566 -322.83837891 95.27124023 C-324.97119651 95.8884101 -327.10400932 96.50559653 -329.23681641 97.12280273 C-330.70828125 97.54541382 -330.70828125 97.54541382 -332.20947266 97.9765625 C-333.11826172 98.24009521 -334.02705078 98.50362793 -334.96337891 98.77514648 C-335.74535645 99.00065186 -336.52733398 99.22615723 -337.33300781 99.45849609 C-339.67336206 100.1623497 -339.67336206 100.1623497 -342.07763672 101.2590332 C-344.82931686 102.26480145 -346.88760751 102.42945926 -349.80712891 102.41577148 C-350.77005859 102.41383789 -351.73298828 102.4119043 -352.72509766 102.40991211 C-353.71896484 102.39766602 -354.71283203 102.38541992 -355.73681641 102.37280273 C-356.73841797 102.3721582 -357.74001953 102.37151367 -358.77197266 102.37084961 C-366.18958896 102.32604522 -366.18958896 102.32604522 -369.61181641 101.18530273 C-369.61181641 100.52530273 -369.61181641 99.86530273 -369.61181641 99.18530273 C-370.49095703 99.07444336 -371.37009766 98.96358398 -372.27587891 98.84936523 C-382.84390892 96.74565902 -392.74524854 88.79467833 -398.71337891 79.96264648 C-400.18204078 77.05725018 -400.41396251 74.4169163 -400.61181641 71.18530273 C-399.12681641 70.69030273 -399.12681641 70.69030273 -397.61181641 70.18530273 C-397.61181641 68.20530273 -397.61181641 66.22530273 -397.61181641 64.18530273 C-390.24633636 60.17181487 -382.81031877 57.43676072 -374.79931641 54.99780273 C-372.60483139 54.31834411 -370.41080286 53.63740898 -368.21728516 52.95483398 C-367.25975342 52.6619751 -366.30222168 52.36911621 -365.31567383 52.06738281 C-362.69495547 51.21242521 -360.16525474 50.221302 -357.61181641 49.18530273 C-354.71157837 48.40296492 -352.47499896 48.16841845 -349.61181641 49.18530273 C-347.80422557 51.44940248 -346.56963883 53.8217464 -345.22119141 56.38452148 C-339.72535387 65.94887952 -330.36745738 72.01728214 -320.04541016 75.32983398 C-314.49644357 76.62304475 -308.9048854 76.47588557 -303.23681641 76.43530273 C-302.16431641 76.44303711 -301.09181641 76.45077148 -299.98681641 76.45874023 C-285.29073856 76.42298335 -271.7470941 72.64456565 -259.61181641 64.18530273 C-258.63728516 63.54850586 -257.66275391 62.91170898 -256.65869141 62.25561523 C-242.06594422 52.53864377 -228.911997 40.34332837 -219.29931641 25.62280273 C-215.97874914 21.12510315 -213.71235683 19.34099944 -208.23681641 18.12280273 C-206.39596097 17.86668372 -204.55402285 17.61346752 -202.70556641 17.41967773 C-199.53341602 17.06458627 -196.39235505 16.53661538 -193.2421875 16.02539062 C-191.6165475 15.76416666 -189.98928884 15.51275476 -188.36035156 15.27294922 C-187.60028809 15.16023682 -186.84022461 15.04752441 -186.05712891 14.93139648 C-185.39213379 14.83528076 -184.72713867 14.73916504 -184.04199219 14.64013672 C-181.9456892 14.24779068 -179.87167766 13.73960844 -177.80566406 13.21044922 C-173.91660029 12.22214645 -170.04366873 11.58052031 -166.06494141 11.03686523 C-165.35284515 10.93951584 -164.6407489 10.84216644 -163.90707397 10.74186707 C-161.55950508 10.4245288 -159.21089743 10.11623768 -156.86181641 9.81030273 C-156.04235535 9.70269623 -155.22289429 9.59508972 -154.37860107 9.48422241 C-123.65114577 5.47945229 -92.68743442 2.81544425 -61.73748779 1.29244995 C-60.25685914 1.21781695 -58.77643864 1.13898583 -57.29620361 1.05691528 C-38.20528901 0.00845416 -19.11340152 -0.00222943 0 0 Z " fill="#F642AD" transform="translate(514.61181640625,285.814697265625)"/>
<path d="M0 0 C0.33 0.99 0.66 1.98 1 3 C1.66 3 2.32 3 3 3 C3 4.32 3 5.64 3 7 C2.01 7.33 1.02 7.66 0 8 C-0.33 8.99 -0.66 9.98 -1 11 C-0.34 10.67 0.32 10.34 1 10 C1.99 10 2.98 10 4 10 C3.67 11.32 3.34 12.64 3 14 C-1.875 12.125 -1.875 12.125 -3 11 C-3.33 11.66 -3.66 12.32 -4 13 C-4.99 13 -5.98 13 -7 13 C-6.01 13.66 -5.02 14.32 -4 15 C-3.8125 17.625 -3.8125 17.625 -4 20 C-4.66 20 -5.32 20 -6 20 C-5.01 22.475 -5.01 22.475 -4 25 C-3.01 25 -2.02 25 -1 25 C-1 24.01 -1 23.02 -1 22 C-1.66 21.67 -2.32 21.34 -3 21 C-2.34 20.34 -1.68 19.68 -1 19 C-1.66 18.67 -2.32 18.34 -3 18 C-3 16.35 -3 14.7 -3 13 C0 14 0 14 1.0625 16 C1.371875 16.66 1.68125 17.32 2 18 C2.66 18.33 3.32 18.66 4 19 C4.33 18.34 4.66 17.68 5 17 C5.33 17.99 5.66 18.98 6 20 C5.01 20.66 4.02 21.32 3 22 C3.33 22.66 3.66 23.32 4 24 C4.69867188 23.2059375 5.39734375 22.411875 6.1171875 21.59375 C7.036168 20.56224127 7.95545473 19.5310053 8.875 18.5 C9.33519531 17.97535156 9.79539063 17.45070313 10.26953125 16.91015625 C11.47172076 15.56858245 12.73245946 14.28000815 14 13 C14.66 13 15.32 13 16 13 C15.33349943 19.35397209 13.57280369 25.22182287 11.6875 31.3125 C11.24374023 32.78493164 11.24374023 32.78493164 10.79101562 34.28710938 C9.4131743 38.78369304 7.96957972 43.18397896 6.14453125 47.51953125 C2.8296844 55.58798564 0.52104234 64.03377348 -2 72.375 C-3.03947887 75.80014704 -4.08133343 79.22456423 -5.125 82.6484375 C-5.37454941 83.46712311 -5.62409882 84.28580872 -5.88121033 85.12930298 C-8.58795226 93.97498301 -11.41486658 102.72269165 -14.92553711 111.28466797 C-16.23880626 114.60349995 -17.43495189 117.95678374 -18.62890625 121.3203125 C-18.85807739 121.96492432 -19.08724854 122.60953613 -19.32336426 123.27368164 C-19.88319006 124.84878475 -20.44172773 126.42434559 -21 128 C-22.10512939 128.10022461 -23.21025879 128.20044922 -24.34887695 128.30371094 C-28.44890805 128.68042277 -32.54629169 129.08118669 -36.64331055 129.48925781 C-38.41676908 129.66249971 -40.19087798 129.82921325 -41.96557617 129.98925781 C-44.51680496 130.22047407 -47.06477208 130.47508371 -49.61328125 130.734375 C-50.40712723 130.80122498 -51.20097321 130.86807495 -52.01887512 130.93695068 C-56.51643378 131.41131568 -56.51643378 131.41131568 -60.02416992 134.07910156 C-60.34619385 134.71299805 -60.66821777 135.34689453 -61 136 C-60.34 135.67 -59.68 135.34 -59 135 C-57.68373308 138.61973402 -57 141.09567131 -57 145 C-56.67 145.66 -56.34 146.32 -56 147 C-56.33 147.66 -56.66 148.32 -57 149 C-56.34 149 -55.68 149 -55 149 C-55.165 149.928125 -55.33 150.85625 -55.5 151.8125 C-56.07748388 154.95621353 -56.07748388 154.95621353 -56 158 C-57.16015625 157.98453125 -58.3203125 157.9690625 -59.515625 157.953125 C-65.48085604 158.20268948 -71.47892763 158.48669673 -75.90136719 162.89550781 C-79.46782723 167.76450108 -82.13783014 173.12081416 -84.77294922 178.53564453 C-86.38649069 181.7762111 -88.24057351 184.76066415 -90.1875 187.8125 C-92.21400939 191.06909224 -94.20341429 194.3353752 -96.1015625 197.66796875 C-101.23044422 206.60919721 -106.94061147 214.47943244 -114 222 C-114.77859375 222.83402344 -115.5571875 223.66804687 -116.359375 224.52734375 C-123.71998871 231.7521072 -134.60669612 238.56826936 -145 240 C-145.74121094 240.10441406 -146.48242188 240.20882812 -147.24609375 240.31640625 C-149.49565347 240.5690306 -151.74577273 240.79326311 -154 241 C-155.11375 241.103125 -156.2275 241.20625 -157.375 241.3125 C-160 241 -160 241 -161.875 239.125 C-163 237 -163 237 -163 235 C-163.66 235 -164.32 235 -165 235 C-165.46474032 231.04970731 -164.63292622 228.84110351 -162.31640625 225.63671875 C-160.89293616 223.86688502 -159.39616378 222.18658584 -157.875 220.5 C-154.19518196 216.38679868 -151.04050706 211.98239915 -147.90380859 207.45117188 C-145.46520615 203.95506883 -142.90063793 200.61254657 -140.2109375 197.3046875 C-135.71166916 191.72701218 -131.62561567 185.8996591 -127.5625 180 C-126.84384766 178.96488281 -126.12519531 177.92976562 -125.38476562 176.86328125 C-121.95458001 172.0756705 -121.95458001 172.0756705 -119 167 C-119.58007812 167.04640625 -120.16015625 167.0928125 -120.7578125 167.140625 C-126.42309292 167.40238713 -129.63985216 166.97257915 -134 163 C-138.33024104 157.406772 -143 151.22368618 -143 144 C-143.66 144 -144.32 144 -145 144 C-145.25 140.6875 -145.25 140.6875 -145 137 C-142.81673246 134.69857915 -141.61657385 134.01777679 -138.42578125 133.92578125 C-137.39839844 134.05339844 -136.37101562 134.18101562 -135.3125 134.3125 C-128.19858154 134.98858518 -121.14548173 135.1601108 -114 135.1875 C-112.91372314 135.20014893 -111.82744629 135.21279785 -110.70825195 135.22583008 C-103.0748671 135.40433926 -103.0748671 135.40433926 -96 133 C-94.26337958 130.64924478 -92.92137667 128.54824366 -91.5625 126 C-90.78415595 124.62205242 -90.00289623 123.24574777 -89.21875 121.87109375 C-88.84105469 121.20190918 -88.46335937 120.53272461 -88.07421875 119.84326172 C-86.69895225 117.48342944 -85.16486691 115.27331284 -83.5625 113.0625 C-80.62837521 108.97760609 -77.95315336 104.77691812 -75.3125 100.5 C-69.35709447 90.87100617 -63.04589998 81.4880232 -56.71972656 72.10009766 C-55.51946303 70.31807868 -54.32144614 68.53458403 -53.125 66.75 C-52.73054688 66.16226807 -52.33609375 65.57453613 -51.9296875 64.96899414 C-49.43433375 61.22546997 -47.00922379 57.44324217 -44.6171875 53.6328125 C-38.86579535 44.47127519 -33.12575531 35.50779151 -26.39453125 27.03515625 C-23.65454032 23.56211717 -21.02858232 20.0222949 -18.4375 16.4375 C-18.00727539 15.85291016 -17.57705078 15.26832031 -17.13378906 14.66601562 C-15.0694789 11.79378587 -13.7246324 9.4517436 -13 6 C-9.11470077 2.33055073 -5.41506265 0 0 0 Z " fill="#FEA031" transform="translate(172,25)"/>
<path d="M0 0 C5.33406495 0.50823668 10.56403525 0.8015559 15.921875 0.7890625 C16.93631683 0.78753677 16.93631683 0.78753677 17.97125244 0.78598022 C20.03035346 0.77927435 22.08936662 0.76675121 24.1484375 0.75390625 C25.5781234 0.74887214 27.00781105 0.74431268 28.4375 0.74023438 C31.88284995 0.7294009 35.32813177 0.71224609 38.7734375 0.69140625 C38.7734375 1.35140625 38.7734375 2.01140625 38.7734375 2.69140625 C39.7325 3.40296875 39.7325 3.40296875 40.7109375 4.12890625 C42.7734375 5.69140625 42.7734375 5.69140625 43.7734375 8.69140625 C44.7634375 9.68140625 44.7634375 9.68140625 45.7734375 10.69140625 C44.4534375 11.02140625 43.1334375 11.35140625 41.7734375 11.69140625 C41.7734375 12.68140625 41.7734375 13.67140625 41.7734375 14.69140625 C42.7634375 15.18640625 42.7634375 15.18640625 43.7734375 15.69140625 C43.2784375 17.17640625 43.2784375 17.17640625 42.7734375 18.69140625 C43.7840625 17.84578125 44.7946875 17.00015625 45.8359375 16.12890625 C48.97426486 13.84881535 49.58201688 13.68229098 53.7109375 13.87890625 C54.7215625 14.14703125 55.7321875 14.41515625 56.7734375 14.69140625 C57.1034375 14.03140625 57.4334375 13.37140625 57.7734375 12.69140625 C57.7734375 14.01140625 57.7734375 15.33140625 57.7734375 16.69140625 C60.0834375 16.36140625 62.3934375 16.03140625 64.7734375 15.69140625 C64.1134375 16.02140625 63.4534375 16.35140625 62.7734375 16.69140625 C62.7734375 17.35140625 62.7734375 18.01140625 62.7734375 18.69140625 C61.4534375 19.02140625 60.1334375 19.35140625 58.7734375 19.69140625 C60.0934375 20.35140625 61.4134375 21.01140625 62.7734375 21.69140625 C62.7734375 22.35140625 62.7734375 23.01140625 62.7734375 23.69140625 C65.7434375 23.36140625 68.7134375 23.03140625 71.7734375 22.69140625 C68.86175671 24.14724665 66.84790432 24.95815997 63.83984375 25.78125 C58.61092382 27.71712473 57.03263863 31.43458051 54.7109375 36.25390625 C53.86097623 37.90061496 53.00683111 39.54517112 52.1484375 41.1875 C51.53935547 42.36675049 51.53935547 42.36675049 50.91796875 43.56982422 C49.53300312 46.137092 47.94672422 48.47389779 46.2109375 50.81640625 C43.24132383 54.84511291 40.89506908 59.04892106 38.5234375 63.44140625 C28.20063385 82.32643175 14.61087842 96.04501821 -5.2265625 104.69140625 C-9.82724814 105.82420347 -14.51584049 106.25938236 -19.2265625 106.69140625 C-20.3403125 106.79453125 -21.4540625 106.89765625 -22.6015625 107.00390625 C-25.2265625 106.69140625 -25.2265625 106.69140625 -27.1015625 104.81640625 C-28.2265625 102.69140625 -28.2265625 102.69140625 -28.2265625 100.69140625 C-28.8865625 100.69140625 -29.5465625 100.69140625 -30.2265625 100.69140625 C-30.69130282 96.74111356 -29.85948872 94.53250976 -27.54296875 91.328125 C-26.11949866 89.55829127 -24.62272628 87.87799209 -23.1015625 86.19140625 C-19.42174446 82.07820493 -16.26706956 77.6738054 -13.13037109 73.14257812 C-10.69176865 69.64647508 -8.12720043 66.30395282 -5.4375 62.99609375 C-0.93823166 57.41841843 3.14782183 51.59106535 7.2109375 45.69140625 C8.28891602 44.13873047 8.28891602 44.13873047 9.38867188 42.5546875 C12.81885749 37.76707675 12.81885749 37.76707675 15.7734375 32.69140625 C15.19335938 32.7378125 14.61328125 32.78421875 14.015625 32.83203125 C8.35034458 33.09379338 5.13358534 32.6639854 0.7734375 28.69140625 C-3.55680354 23.09817825 -8.2265625 16.91509243 -8.2265625 9.69140625 C-8.8865625 9.69140625 -9.5465625 9.69140625 -10.2265625 9.69140625 C-10.4765625 6.37890625 -10.4765625 6.37890625 -10.2265625 2.69140625 C-7.0126328 -0.76614916 -4.50982282 -0.51844224 0 0 Z " fill="#FE9B2A" transform="translate(37.2265625,159.30859375)"/>
<path d="M0 0 C2.39717862 2.39717862 2.3468288 3.07883503 2.4375 6.375 C2.35205547 12.86878434 -0.22468274 18.23130483 -3 24 C-3.66 24 -4.32 24 -5 24 C-5.0928125 24.52464844 -5.185625 25.04929688 -5.28125 25.58984375 C-8.35879764 35.90966383 -16.09968499 45.04237866 -23 53 C-23.91435815 54.10568127 -24.82569923 55.21386284 -25.734375 56.32421875 C-30.75265943 62.42772567 -35.83367543 68.0275315 -42 73 C-43.24523437 74.09248047 -43.24523437 74.09248047 -44.515625 75.20703125 C-51.39851396 81.13614845 -59.5407809 88 -69 88 C-72.17915998 81.64168004 -69.49347292 73.87428795 -67.47094727 67.50170898 C-64.44472136 58.74975475 -59.81281756 50.87261032 -55 43 C-54.59088379 42.32517578 -54.18176758 41.65035156 -53.76025391 40.95507812 C-47.83865109 31.30647539 -40.99354059 22.99919173 -33 15 C-32.25105469 14.22785156 -31.50210938 13.45570313 -30.73046875 12.66015625 C-22.98208623 5.17053233 -11.25093765 -2.6267685 0 0 Z " fill="#F9FBFC" transform="translate(311,132)"/>
<path d="M0 0 C-0.66650057 6.35397209 -2.42719631 12.22182287 -4.3125 18.3125 C-4.75625977 19.78493164 -4.75625977 19.78493164 -5.20898438 21.28710938 C-6.5868257 25.78369304 -8.03042028 30.18397896 -9.85546875 34.51953125 C-13.1703156 42.58798564 -15.47895766 51.03377348 -18 59.375 C-19.03947887 62.80014704 -20.08133343 66.22456423 -21.125 69.6484375 C-21.37454941 70.46712311 -21.62409882 71.28580872 -21.88121033 72.12930298 C-24.58584425 80.96809398 -27.40925525 89.71051478 -30.91796875 98.265625 C-33.10208101 103.78504226 -35.0261311 109.40280768 -37 115 C-41.47829165 115.50804717 -45.95775165 116.00497554 -50.4375 116.5 C-51.69755859 116.64308594 -52.95761719 116.78617187 -54.25585938 116.93359375 C-60.88268709 117.66029548 -67.33367958 118.17409324 -74 118 C-73.67 116.68 -73.34 115.36 -73 114 C-72.34 114 -71.68 114 -71 114 C-70.7676062 113.19731689 -70.7676062 113.19731689 -70.53051758 112.37841797 C-68.61275395 106.169985 -65.89720642 100.75773073 -62.6875 95.125 C-61.69126135 93.34773746 -60.69516612 91.57039453 -59.69921875 89.79296875 C-59.22661621 88.95556152 -58.75401367 88.1181543 -58.26708984 87.25537109 C-56.81252531 84.66630227 -55.40152903 82.05560556 -54 79.4375 C-50.39223525 72.80588618 -46.56270245 66.3000094 -42.76953125 59.7734375 C-39.14509193 53.53532862 -35.56951586 47.2696654 -32 41 C-31.34 41 -30.68 41 -30 41 C-29.90589844 40.47277344 -29.81179687 39.94554687 -29.71484375 39.40234375 C-27.10162332 30.62020952 -9.54437081 0 0 0 Z " fill="#FCFAF8" transform="translate(188,38)"/>
<path d="M0 0 C4.46042887 1.95098433 7.77526791 4.84914425 10.65234375 8.7421875 C12.05366202 13.05562029 11.37135016 17.09916669 9.39355469 21.08251953 C8.09844036 23.15986671 6.72311224 25.13794556 5.27734375 27.11328125 C4.7774292 27.81356445 4.27751465 28.51384766 3.76245117 29.23535156 C-1.83885514 36.95692637 -7.70227439 44.55789228 -17.6015625 46.4296875 C-24.16863491 46.82808133 -29.19983743 44.08892725 -34.09765625 39.92578125 C-36.34933602 35.61006168 -36.33554371 31.8301484 -35.59765625 27.05078125 C-33.94321723 23.03084043 -31.74081234 19.46144497 -29.41015625 15.80078125 C-28.83201172 14.846875 -28.25386719 13.89296875 -27.65820312 12.91015625 C-20.06159638 0.54957578 -14.83130062 -4.82188664 0 0 Z " fill="#60AEE4" transform="translate(607.59765625,58.94921875)"/>
<path d="M0 0 C6.06825907 2.30638629 10.63685564 4.32055694 13.86328125 10.08203125 C14.66831808 14.42923013 14.08580699 17.12782168 11.86328125 20.83203125 C10.87667139 22.25805559 9.87513495 23.67380664 8.86328125 25.08203125 C8.28191406 25.96375 7.70054687 26.84546875 7.1015625 27.75390625 C1.66393709 35.73938454 -4.76480727 42.89710524 -14.13671875 46.08203125 C-20.14574825 47.00649733 -23.45856793 45.16799294 -28.17578125 41.72265625 C-30.64092141 39.66018839 -32.08908626 38.15009783 -33.13671875 35.08203125 C-32.74456631 29.25784129 -30.91611649 24.79493817 -28.38671875 19.64453125 C-27.84265381 18.52075073 -27.84265381 18.52075073 -27.28759766 17.37426758 C-21.13992944 4.82563079 -15.35319209 -4.49315086 0 0 Z " fill="#62AFE4" transform="translate(439.13671875,58.91796875)"/>
<path d="M0 0 C6.82583001 1.84804131 13.40643587 4.60292017 19 9 C20.72689359 12.45378717 20.89302094 15.32120305 20 19 C17.32971606 23.60034544 14.23125011 27.7809584 11 32 C10.44957031 32.78890625 9.89914062 33.5778125 9.33203125 34.390625 C8.89246094 34.92171875 8.45289063 35.4528125 8 36 C7.34 36 6.68 36 6 36 C6 36.66 6 37.32 6 38 C2.10300189 41.55612594 -2.13033633 44.39771265 -7.5 44.625 C-13.86243684 44.14670492 -18.9461553 41.46703193 -24.0625 37.8125 C-26.36560319 34.46928569 -26.78845448 32.58278524 -26.54296875 28.58203125 C-24.4824063 18.78324148 -17.45647033 7.81267015 -9.98046875 1.21875 C-6.74108984 -0.77471394 -3.62761174 -0.54505018 0 0 Z " fill="#5EAEE3" transform="translate(759,63)"/>
<path d="M0 0 C0.34163182 4.95366134 -0.59667855 7.92909352 -2.875 12.3125 C-3.18526123 12.91078613 -3.49552246 13.50907227 -3.81518555 14.12548828 C-7.91689862 21.9168428 -12.4308377 29.47632894 -17 37 C-17.42748535 37.70511719 -17.8549707 38.41023438 -18.29541016 39.13671875 C-22.94885819 46.78002922 -27.71900141 54.25757175 -33.08203125 61.4296875 C-34.3770756 63.16520519 -35.64491633 64.92130904 -36.88671875 66.6953125 C-41.64523835 73.47113555 -46.97227985 79.51576482 -52.63623047 85.52587891 C-55.55510644 88.68094033 -58.33143301 91.96836654 -61.125 95.234375 C-63 97 -63 97 -66 97 C-59.18896796 81.91198532 -51.79995142 67.03699567 -43 53 C-42.27783662 51.81559719 -41.55656026 50.6306533 -40.8359375 49.4453125 C-10.58833971 -0 -10.58833971 -0 0 0 Z " fill="#F6F9FB" transform="translate(543,59)"/>
<path d="M0 0 C0.66 0.33 1.32 0.66 2 1 C-17.52948308 36.35765889 -17.52948308 36.35765889 -32 41 C-34.78015593 41.34063172 -37.17170391 41.18546204 -40 41 C-42 39 -42 39 -42.5625 36.375 C-41.258176 28.54905601 -33.06814353 23.12073108 -27 18.625 C-26.26958496 18.07481201 -25.53916992 17.52462402 -24.78662109 16.95776367 C-17.71459157 11.68235006 -10.4053983 6.79115664 -3 2 C-2.01 1.34 -1.02 0.68 0 0 Z " fill="#F5F9FB" transform="translate(249,284)"/>
<path d="M0 0 C-6.93 2.31 -13.86 4.62 -21 7 C-19.68 7.33 -18.36 7.66 -17 8 C-20.63 8.66 -24.26 9.32 -28 10 C-28.33 7.36 -28.66 4.72 -29 2 C-33.95 2 -38.9 2 -44 2 C-44 1.67 -44 1.34 -44 1 C-36.08 0.67 -28.16 0.34 -20 0 C-20 0.66 -20 1.32 -20 2 C-19.43152344 1.86722656 -18.86304688 1.73445313 -18.27734375 1.59765625 C-5.39494333 -1.34873583 -5.39494333 -1.34873583 0 0 Z " fill="#F644AE" transform="translate(247,362)"/>
<path d="M0 0 C1.61666825 0.0018707 3.23333708 0.00329151 4.8500061 0.00428772 C9.0551517 0.00806163 13.26026141 0.01784656 17.46539307 0.0289917 C21.77640294 0.03931759 26.08741876 0.04380901 30.3984375 0.04882812 C38.82032876 0.05947474 47.24219114 0.07648757 55.6640625 0.09765625 C55.6640625 0.42765625 55.6640625 0.75765625 55.6640625 1.09765625 C53.74158691 1.13524048 53.74158691 1.13524048 51.78027344 1.17358398 C47.02415 1.2677722 42.26816871 1.36796515 37.51220703 1.4699707 C35.45397263 1.51327634 33.39570332 1.55495454 31.33740234 1.5949707 C28.37847371 1.652779 25.4197201 1.71644321 22.4609375 1.78125 C21.54101013 1.79796249 20.62108276 1.81467499 19.67327881 1.83189392 C18.38239349 1.86181175 18.38239349 1.86181175 17.06542969 1.89233398 C16.31042175 1.90787827 15.55541382 1.92342255 14.77752686 1.93943787 C12.63926579 2.09951258 10.72417166 2.51581993 8.6640625 3.09765625 C8.3340625 5.07765625 8.0040625 7.05765625 7.6640625 9.09765625 C7.1690625 7.61265625 7.1690625 7.61265625 6.6640625 6.09765625 C6.0040625 5.76765625 5.3440625 5.43765625 4.6640625 5.09765625 C5.3240625 5.09765625 5.9840625 5.09765625 6.6640625 5.09765625 C6.6640625 4.10765625 6.6640625 3.11765625 6.6640625 2.09765625 C-5.8759375 2.09765625 -18.4159375 2.09765625 -31.3359375 2.09765625 C-31.3359375 1.76765625 -31.3359375 1.43765625 -31.3359375 1.09765625 C-20.86198906 0.1782979 -10.50461565 -0.03630017 0 0 Z " fill="#F51C99" transform="translate(496.3359375,285.90234375)"/>
<path d="M0 0 C0.33 0.99 0.66 1.98 1 3 C3.475 3.495 3.475 3.495 6 4 C2.10403397 7.89596603 -4.18984288 8.65915894 -9.375 10.1875 C-11.24285156 10.75887695 -11.24285156 10.75887695 -13.1484375 11.34179688 C-14.3446875 11.69693359 -15.5409375 12.05207031 -16.7734375 12.41796875 C-17.87091309 12.74563232 -18.96838867 13.0732959 -20.09912109 13.41088867 C-23 14 -23 14 -27 13 C-19.41 10.69 -11.82 8.38 -4 6 C-8.455 6.495 -8.455 6.495 -13 7 C-17.5 7.5 -17.5 7.5 -22 8 C-22 7.34 -22 6.68 -22 6 C-19.45986091 5.1824493 -16.91806769 4.37084814 -14.375 3.5625 C-13.66214844 3.33240234 -12.94929687 3.10230469 -12.21484375 2.86523438 C-8.15824149 1.58126394 -4.23060375 0.58054026 0 0 Z " fill="#F52DA2" transform="translate(249,356)"/>
<path d="M0 0 C0.33 0.66 0.66 1.32 1 2 C3.52733235 2.65555119 3.52733235 2.65555119 6 3 C6 3.66 6 4.32 6 5 C6.99 5 7.98 5 9 5 C9 5.66 9 6.32 9 7 C8.34 7 7.68 7 7 7 C7.144375 8.27875 7.28875 9.5575 7.4375 10.875 C7.51871094 11.59429687 7.59992188 12.31359375 7.68359375 13.0546875 C7.91292961 15.07404316 7.91292961 15.07404316 9 17 C8.01 18.32 7.02 19.64 6 21 C5.67 20.34 5.34 19.68 5 19 C4.01 18.67 3.02 18.34 2 18 C2.66 18 3.32 18 4 18 C4 17.34 4 16.68 4 16 C2.68 16.33 1.36 16.66 0 17 C0.33 16.01 0.66 15.02 1 14 C0.67 13.67 0.34 13.34 0 13 C-0.625 10.5 -0.625 10.5 -1 8 C-0.67 7.67 -0.34 7.34 0 7 C-0.66 7 -1.32 7 -2 7 C-1.34 4.69 -0.68 2.38 0 0 Z " fill="#FEA436" transform="translate(110,131)"/>
<path d="M0 0 C0.495 1.485 0.495 1.485 1 3 C6.94 3 12.88 3 19 3 C19 3.66 19 4.32 19 5 C24.94 5.33 30.88 5.66 37 6 C37 6.33 37 6.66 37 7 C19.84790634 7.08198219 2.71081842 6.84358898 -14.4375 6.5 C-16.93424088 6.45162047 -19.43098567 6.40344235 -21.92773438 6.35546875 C-27.95186978 6.23929065 -33.9759529 6.12066621 -40 6 C-40 5.67 -40 5.34 -40 5 C-38.88963379 4.97494385 -37.77926758 4.9498877 -36.63525391 4.92407227 C-32.52396681 4.83005085 -28.41285077 4.72981743 -24.30175781 4.62768555 C-22.52087397 4.5843167 -20.73994802 4.54264306 -18.95898438 4.50268555 C-16.40221452 4.4450301 -13.84565702 4.3813223 -11.2890625 4.31640625 C-10.49005524 4.29969376 -9.69104797 4.28298126 -8.86782837 4.26576233 C-4.80193632 4.24607009 -4.80193632 4.24607009 -1 3 C-0.67 2.01 -0.34 1.02 0 0 Z " fill="#F663B8" transform="translate(602,308)"/>
<path d="M0 0 C2.09782787 2.09782787 2.6509396 3.3799207 3.625 6.125 C4.01558594 7.21167969 4.01558594 7.21167969 4.4140625 8.3203125 C4.70410156 9.15175781 4.70410156 9.15175781 5 10 C6.65 10 8.3 10 10 10 C10 10.99 10 11.98 10 13 C10.66 13.33 11.32 13.66 12 14 C11.7525 15.051875 11.505 16.10375 11.25 17.1875 C10.6110158 21.05366249 10.6110158 21.05366249 12.9375 23.9375 C13.9584375 24.9584375 13.9584375 24.9584375 15 26 C12.07354775 25.67911708 11.14710675 25.17485056 9.21875 22.8828125 C0 8.09090909 0 8.09090909 0 0 Z " fill="#54A9E2" transform="translate(813,218)"/>
<path d="M0 0 C0.495 1.485 0.495 1.485 1 3 C-25.75125788 2.0125055 -25.75125788 2.0125055 -39 1 C-39 0.67 -39 0.34 -39 0 C-25.91424998 -1.1280819 -13.10129443 -0.80614913 0 0 Z " fill="#F651B2" transform="translate(678,315)"/>
<path d="M0 0 C0.66 0.33 1.32 0.66 2 1 C4.00800456 0.71887936 6.01014051 0.38932033 8 0 C4.82973151 4.75540274 1.31521499 7.14863298 -4 9 C-9.06849828 9.60134725 -11.87221088 9.00202845 -16 6 C-12.86501708 4.14223235 -10.62528568 3.79859524 -7 4 C-7.33 4.66 -7.66 5.32 -8 6 C-5.08347826 6.16681109 -5.08347826 6.16681109 -2 6 C-1.34 5.34 -0.68 4.68 0 4 C0 2.68 0 1.36 0 0 Z " fill="#52A8E1" transform="translate(429,96)"/>
<path d="M0 0 C0 3.66239865 -0.97857561 4.88180398 -2.95703125 7.9296875 C-3.88418945 9.37021484 -3.88418945 9.37021484 -4.83007812 10.83984375 C-5.48427734 11.84144531 -6.13847656 12.84304687 -6.8125 13.875 C-8.09028682 15.8512761 -9.367645 17.82782942 -10.64453125 19.8046875 C-11.21534424 20.68108887 -11.78615723 21.55749023 -12.37426758 22.46044922 C-13.96560232 24.94626751 -15.49431858 27.46156642 -17 30 C-17.66 29.67 -18.32 29.34 -19 29 C-13.45309416 18.68498026 -7.0951778 9.31242086 0 0 Z " fill="#4EA6E1" transform="translate(487,73)"/>
<path d="M0 0 C0.99 0.33 1.98 0.66 3 1 C1.74896484 2.01707031 1.74896484 2.01707031 0.47265625 3.0546875 C-5.88253272 8.28692443 -11.72062886 13.58228347 -17.12109375 19.828125 C-19.30362911 22.35097252 -21.60428528 24.6815664 -24 27 C-22.54413889 22.32044643 -19.8126338 19.23178296 -16.5 15.75 C-15.97116211 15.18514893 -15.44232422 14.62029785 -14.89746094 14.03833008 C-10.18432888 9.06500267 -5.20572476 4.4571139 0 0 Z " fill="#4EA7E1" transform="translate(519,37)"/>
<path d="M0 0 C7.59 0 15.18 0 23 0 C21.68 0.33 20.36 0.66 19 1 C19.33 2.65 19.66 4.3 20 6 C22.31 6 24.62 6 27 6 C24.09907498 7.93395001 23.10325263 8.30131941 19.8125 8.625 C18.554375 8.74875 17.29625 8.8725 16 9 C15.67 6.36 15.34 3.72 15 1 C10.05 1 5.1 1 0 1 C0 0.67 0 0.34 0 0 Z " fill="#F65EB6" transform="translate(203,363)"/>
<path d="M0 0 C5.35739424 0.63028167 9.03920637 3.10456616 12.875 6.8125 C14.58766304 10.14267814 14.49453679 12.29097406 14 16 C12.60207644 18.86796223 10.84939998 21.40664875 9 24 C8.22606502 25.16461143 7.45487678 26.33105688 6.6875 27.5 C5.8521875 28.7375 5.8521875 28.7375 5 30 C4.67 29.34 4.34 28.68 4 28 C5.67329125 24.69901127 7.55631131 21.54818353 9.43359375 18.359375 C11.076854 14.83517597 11.49556768 12.82839649 11 9 C7.8894698 5.06609416 4.55369309 3.01209695 0 1 C0 0.67 0 0.34 0 0 Z " fill="#4EA6E0" transform="translate(439,60)"/>
<path d="M0 0 C0.93423645 3.01031744 1.04449911 3.86650268 0 7 C0.99 7 1.98 7 3 7 C3.33 8.65 3.66 10.3 4 12 C3.01 12.495 3.01 12.495 2 13 C1.34 12.01 0.68 11.02 0 10 C-0.33 13.63 -0.66 17.26 -1 21 C0.32 21.66 1.64 22.32 3 23 C3.33 23.66 3.66 24.32 4 25 C1.10829428 23.70371813 -0.9944831 22.4744124 -3 20 C-4.29374242 13.08735666 -2.31312927 6.47125452 0 0 Z " fill="#FD911C" transform="translate(125,229)"/>
<path d="M0 0 C0.33 0.66 0.66 1.32 1 2 C1.66 2 2.32 2 3 2 C3.38133299 3.9914056 3.71325582 5.99279077 4 8 C3.67 8.33 3.34 8.66 3 9 C3.99 9.66 4.98 10.32 6 11 C-0.14689273 10.63118644 -2.69027374 9.09949571 -7 5 C-6.67 4.01 -6.34 3.02 -6 2 C-5.01 2.99 -4.02 3.98 -3 5 C-2.01 3.35 -1.02 1.7 0 0 Z " fill="#54A8E1" transform="translate(580,93)"/>
<path d="M0 0 C0.66 0.33 1.32 0.66 2 1 C4.09821215 0.60061233 4.09821215 0.60061233 6 0 C5.32599282 3.91114026 3.45743967 6.87119182 1.4375 10.25 C0.79683594 11.32765625 0.15617188 12.4053125 -0.50390625 13.515625 C-0.99761719 14.33546875 -1.49132812 15.1553125 -2 16 C-2.33 15.34 -2.66 14.68 -3 14 C-2.06553465 11.96855359 -1.06775224 9.96466413 0 8 C-1.32 7.67 -2.64 7.34 -4 7 C-3.67 5.35 -3.34 3.7 -3 2 C-2.01 2 -1.02 2 0 2 C0 1.34 0 0.68 0 0 Z " fill="#FD9925" transform="translate(151,76)"/>
<path d="M0 0 C6.6 0.33 13.2 0.66 20 1 C22 6 22 6 21 9 C19.35 9 17.7 9 16 9 C15.61781233 7.34385343 15.28604898 5.67542976 15 4 C15.33 3.67 15.66 3.34 16 3 C14.92878906 2.95101563 13.85757813 2.90203125 12.75390625 2.8515625 C11.35674361 2.77654706 9.9596095 2.7009987 8.5625 2.625 C7.85544922 2.5940625 7.14839844 2.563125 6.41992188 2.53125 C4.60760812 2.42719371 2.80182012 2.22080108 1 2 C0.67 1.34 0.34 0.68 0 0 Z " fill="#F531A5" transform="translate(198,363)"/>
<path d="M0 0 C0.66 0.33 1.32 0.66 2 1 C2 1.66 2 2.32 2 3 C1.01 3 0.02 3 -1 3 C-1.66 4.65 -2.32 6.3 -3 8 C-2.01 8.33 -1.02 8.66 0 9 C-0.33 9.99 -0.66 10.98 -1 12 C-2.32 11.67 -3.64 11.34 -5 11 C-5 10.34 -5 9.68 -5 9 C-6.98 9.33 -8.96 9.66 -11 10 C-9.36587557 8.29159719 -8.13093906 7.06546953 -6 6 C-6 5.01 -6 4.02 -6 3 C-4.03533587 1.93224776 -2.03144641 0.93446535 0 0 Z " fill="#65B1E5" transform="translate(274,108)"/>
<path d="M0 0 C0.66 0.33 1.32 0.66 2 1 C-3.39816007 6.9409918 -8.92255419 11.22054765 -16 15 C-17.01320313 15.60714844 -17.01320313 15.60714844 -18.046875 16.2265625 C-20.43971533 17.17412727 -21.61703182 16.85106007 -24 16 C-23.18015625 15.62488281 -22.3603125 15.24976563 -21.515625 14.86328125 C-20.43796875 14.35152344 -19.3603125 13.83976563 -18.25 13.3125 C-17.18265625 12.81363281 -16.1153125 12.31476563 -15.015625 11.80078125 C-11.81393079 9.88888873 -10.21295245 7.95548838 -8 5 C-6.35636866 4.27840576 -4.68949614 3.60648579 -3 3 C-1.22722741 1.47992158 -1.22722741 1.47992158 0 0 Z " fill="#4EA7E1" transform="translate(402,232)"/>
<path d="M0 0 C7.27138388 1.67801166 12.69797844 6.4172441 17.5625 11.875 C19.46855566 16.01859926 19.35877388 19.51532648 19 24 C18.67 24 18.34 24 18 24 C17.83886719 23.154375 17.67773438 22.30875 17.51171875 21.4375 C15.48693133 12.99288897 12.85517166 9.10320449 5.55859375 4.390625 C2.99737176 2.90179688 2.99737176 2.90179688 0 2 C0 1.34 0 0.68 0 0 Z " fill="#55A9E1" transform="translate(854,30)"/>
<path d="M0 0 C0.33 0.66 0.66 1.32 1 2 C-0.1875 5.5 -0.1875 5.5 -2 9 C-2.56847656 9.27585938 -3.13695312 9.55171875 -3.72265625 9.8359375 C-7.18109482 11.6037157 -9.56496393 14.35645802 -12.25 17.125 C-12.80429687 17.68832031 -13.35859375 18.25164062 -13.9296875 18.83203125 C-15.29104485 20.21686028 -16.64614859 21.60783204 -18 23 C-18.66 22.67 -19.32 22.34 -20 22 C-19.2265625 21.24976563 -18.453125 20.49953125 -17.65625 19.7265625 C-11.2829849 13.4844514 -5.37565738 7.14646217 0 0 Z " fill="#E2EFF8" transform="translate(286,212)"/>
<path d="M0 0 C0 3 0 3 -2.5625 5.8125 C-4.87398536 8.40318163 -5.01893677 8.65913806 -4.8125 12.375 C-4.544375 13.24125 -4.27625 14.1075 -4 15 C-4.99 15.495 -4.99 15.495 -6 16 C-6 15.34 -6 14.68 -6 14 C-7.65 14.66 -9.3 15.32 -11 16 C-10.4472637 11.84460746 -8.14719041 9.44975572 -5.5 6.3125 C-4.6853125 5.33925781 -3.870625 4.36601562 -3.03125 3.36328125 C-1 1 -1 1 0 0 Z " fill="#50A7E0" transform="translate(767,170)"/>
<path d="M0 0 C0.66 0 1.32 0 2 0 C2 0.66 2 1.32 2 2 C2.66 2 3.32 2 4 2 C3.814375 2.61875 3.62875 3.2375 3.4375 3.875 C2.76313824 6.04160178 2.76313824 6.04160178 4 8 C0.32589215 9.17571451 -3.16929183 9.07366746 -7 9 C-5.68 8.67 -4.36 8.34 -3 8 C-2.690625 6.865625 -2.38125 5.73125 -2.0625 4.5625 C-1 1 -1 1 0 0 Z " fill="#FDA846" transform="translate(112,175)"/>
<path d="M0 0 C0.33 0.66 0.66 1.32 1 2 C-0.12631435 5.28467004 -1.74415795 8.37389022 -3.25 11.5 C-3.65863281 12.38042969 -4.06726563 13.26085937 -4.48828125 14.16796875 C-4.88917969 15.00972656 -5.29007813 15.85148438 -5.703125 16.71875 C-6.07083008 17.49154297 -6.43853516 18.26433594 -6.81738281 19.06054688 C-8 21 -8 21 -11 23 C-10.53627645 19.17428071 -9.22765941 16.39801436 -7.25390625 13.11328125 C-5.68315635 10.46600494 -4.21884833 7.76754219 -2.75 5.0625 C-2.22921875 4.10472656 -1.7084375 3.14695313 -1.171875 2.16015625 C-0.78515625 1.44730469 -0.3984375 0.73445312 0 0 Z " fill="#50A7E1" transform="translate(541,154)"/>
<path d="M0 0 C0.66 0.66 1.32 1.32 2 2 C-1.41084768 3.20469568 -4.82943733 4.38570092 -8.25 5.5625 C-9.70212891 6.07586914 -9.70212891 6.07586914 -11.18359375 6.59960938 C-12.58544922 7.07817383 -12.58544922 7.07817383 -14.015625 7.56640625 C-15.30388184 8.01415405 -15.30388184 8.01415405 -16.61816406 8.47094727 C-19.16586928 9.03684284 -20.56315454 8.85092276 -23 8 C-21.56445975 7.49440092 -20.1264798 6.9957251 -18.6875 6.5 C-17.88699219 6.2215625 -17.08648437 5.943125 -16.26171875 5.65625 C-14 5 -14 5 -11 5 C-11 4.34 -11 3.68 -11 3 C-7.37 2.01 -3.74 1.02 0 0 Z " fill="#F530A2" transform="translate(212,372)"/>
<path d="M0 0 C0.33 0.99 0.66 1.98 1 3 C1.33 2.34 1.66 1.68 2 1 C2.99 1.33 3.98 1.66 5 2 C5.33 3.98 5.66 5.96 6 8 C2.11290169 8 1.22887404 7.61443702 -2 6 C-2.99 6.495 -2.99 6.495 -4 7 C-2.92598892 4.08482708 -2.22189824 2.22189824 0 0 Z " fill="#55A9E1" transform="translate(297,173)"/>
<path d="M0 0 C1.42059089 4.26177266 -0.49490108 6.89683093 -2.3125 10.75 C-4.65489711 15.78216372 -6.6120636 20.6173431 -8 26 C-8.82638376 23.10765685 -9 21.11257569 -9 18 C-9.66 18.33 -10.32 18.66 -11 19 C-11 18.01 -11 17.02 -11 16 C-10.37963867 15.90468994 -9.75927734 15.80937988 -9.12011719 15.71118164 C-6.57003087 15.11792303 -6.57003087 15.11792303 -5.078125 11.62109375 C-4.4538839 10.23315343 -3.84501762 8.83821744 -3.25 7.4375 C-2.77626953 6.37112305 -2.77626953 6.37112305 -2.29296875 5.28320312 C-1.51545957 3.52791726 -0.75598145 1.76466457 0 0 Z " fill="#45A2DF" transform="translate(250,182)"/>
<path d="M0 0 C1.485 0.99 1.485 0.99 3 2 C3 2.66 3 3.32 3 4 C3.5878125 4.28746094 4.175625 4.57492188 4.78125 4.87109375 C6.11607152 5.5502547 7.43579884 6.26246976 8.71875 7.03515625 C14.59896185 10.42659423 20.3030523 10.77676841 27 11 C27 11.33 27 11.66 27 12 C18.15527842 12.56616283 11.1183921 12.75729295 4 7 C0 2.80487805 0 2.80487805 0 0 Z " fill="#41A1DE" transform="translate(350,238)"/>
<path d="M0 0 C0 0.33 0 0.66 0 1 C-0.92232422 1.09087891 -0.92232422 1.09087891 -1.86328125 1.18359375 C-2.67152344 1.26738281 -3.47976562 1.35117188 -4.3125 1.4375 C-5.11300781 1.51871094 -5.91351563 1.59992188 -6.73828125 1.68359375 C-9.16087179 1.95265693 -9.16087179 1.95265693 -12 3 C-13.89952346 2.91478259 -15.79663573 2.76270916 -17.6875 2.5625 C-18.68136719 2.46066406 -19.67523438 2.35882813 -20.69921875 2.25390625 C-21.45847656 2.17011719 -22.21773438 2.08632812 -23 2 C-23 1.67 -23 1.34 -23 1 C-15.34916042 -0.24911667 -7.72559014 -0.09053426 0 0 Z M-16 3 C-14.68 3 -13.36 3 -12 3 C-12.33 4.32 -12.66 5.64 -13 7 C-13.99 6.34 -14.98 5.68 -16 5 C-16 4.34 -16 3.68 -16 3 Z " fill="#FC8D17" transform="translate(138,155)"/>
<path d="M0 0 C1.32 0.66 2.64 1.32 4 2 C2.67231025 7.79355528 0.33455096 12.0999919 -3 17 C-3.33 16.34 -3.66 15.68 -4 15 C-3.505 14.0925 -3.01 13.185 -2.5 12.25 C-0.78787114 8.54038747 -0.98450809 6.87733275 -2 3 C-1.34 3 -0.68 3 0 3 C0 2.01 0 1.02 0 0 Z " fill="#53A8E1" transform="translate(352,136)"/>
<path d="M0 0 C0.33 0.66 0.66 1.32 1 2 C0.06553465 4.03144641 -0.93224776 6.03533587 -2 8 C-1.34 8 -0.68 8 0 8 C-0.33 9.98 -0.66 11.96 -1 14 C-1.61875 13.79375 -2.2375 13.5875 -2.875 13.375 C-3.57625 13.25125 -4.2775 13.1275 -5 13 C-5.66 13.66 -6.32 14.32 -7 15 C-6.68383092 8.83470299 -3.50784939 4.82731567 0 0 Z " fill="#4EA6E0" transform="translate(580,73)"/>
<path d="M0 0 C0.33 0.99 0.66 1.98 1 3 C-7.25 2.67 -15.5 2.34 -24 2 C-24 1.67 -24 1.34 -24 1 C-21.31264212 0.83071761 -18.62515116 0.6645047 -15.9375 0.5 C-14.80924805 0.42845703 -14.80924805 0.42845703 -13.65820312 0.35546875 C-9.09508249 0.07891598 -4.57143477 -0.0485677 0 0 Z " fill="#F770BE" transform="translate(678,315)"/>
<path d="M0 0 C1.74176628 2.61264943 2.9546243 5.03380931 4.25 7.875 C6.52805498 12.52631227 8.77783521 15.05430364 13 18 C12.34 18.33 11.68 18.66 11 19 C5.74147261 15.10041789 2.12974043 11.28596116 0 5 C-0.25 2 -0.25 2 0 0 Z " fill="#46A2DE" transform="translate(595,229)"/>
<path d="M0 0 C-1.65863505 4.32504836 -4.871041 7.09418825 -8.125 10.25 C-8.68832031 10.80429688 -9.25164063 11.35859375 -9.83203125 11.9296875 C-11.21686028 13.29104485 -12.60783204 14.64614859 -14 16 C-14 12.56655118 -13.66795375 12.26243281 -11.4453125 9.86328125 C-10.91292969 9.28642578 -10.38054688 8.70957031 -9.83203125 8.11523438 C-9.26871094 7.52033203 -8.70539062 6.92542969 -8.125 6.3125 C-7.56941406 5.70599609 -7.01382813 5.09949219 -6.44140625 4.47460938 C-2.26376195 0 -2.26376195 0 0 0 Z " fill="#4DA6E1" transform="translate(682,186)"/>
<path d="M0 0 C0 0.33 0 0.66 0 1 C-1.98 1.33 -3.96 1.66 -6 2 C-5.67 3.65 -5.34 5.3 -5 7 C-7.475 6.01 -7.475 6.01 -10 5 C-11.32 6.32 -12.64 7.64 -14 9 C-13.875 6.75 -13.875 6.75 -13 4 C-8.70151806 0.2132421 -5.65125964 -0.45210077 0 0 Z " fill="#4FA6E1" transform="translate(433,58)"/>
<path d="M0 0 C0.66 0.33 1.32 0.66 2 1 C1.09636719 1.83144531 0.19273437 2.66289062 -0.73828125 3.51953125 C-1.92971816 4.61715423 -3.12112271 5.71481232 -4.3125 6.8125 C-5.20485352 7.63331055 -5.20485352 7.63331055 -6.11523438 8.47070312 C-6.69208984 9.00244141 -7.26894531 9.53417969 -7.86328125 10.08203125 C-8.65665894 10.81256714 -8.65665894 10.81256714 -9.46606445 11.55786133 C-11.0092835 13.00872793 -12.51015856 14.49453768 -14 16 C-12.58038406 11.51530419 -10.3519227 9.00448309 -7 5.75 C-6.113125 4.87859375 -5.22625 4.0071875 -4.3125 3.109375 C-2 1 -2 1 0 0 Z " fill="#4AA4E0" transform="translate(198,294)"/>
<path d="M0 0 C1.61467351 2.0760088 3.00814885 4.01629769 4.1875 6.375 C6.40750265 9.59017626 8.99142704 11.43156582 12.16015625 13.66796875 C14 15 14 15 16 17 C11.03420093 16.54856372 7.58442645 14.32111551 4 11 C1.2419684 7.39520431 0 4.64091712 0 0 Z " fill="#48A3DE" transform="translate(747,234)"/>
<path d="M0 0 C2.24553756 2.09626773 3.82107272 4.16873781 5.375 6.8125 C7.63188643 10.52367191 10.14189533 13.73359466 13 17 C8.62404183 15.64948877 6.80215989 13.95362974 4.25 10.1875 C3.65703125 9.33542969 3.0640625 8.48335937 2.453125 7.60546875 C1.00184636 5.00331055 0.40029145 2.93371499 0 0 Z " fill="#4FA7E0" transform="translate(432,231)"/>
<path d="M0 0 C2.75575394 2.45872657 4.36349838 5.14410508 6.125 8.375 C6.64320313 9.31085938 7.16140625 10.24671875 7.6953125 11.2109375 C8.93223763 13.85514272 9.57147684 16.12575929 10 19 C6.43304898 15.85177801 4.68278566 12.69936386 2.75 8.375 C2.22921875 7.22773438 1.7084375 6.08046875 1.171875 4.8984375 C0 2 0 2 0 0 Z " fill="#50A6E1" transform="translate(837,189)"/>
<path d="M0 0 C7.92 0.33 15.84 0.66 24 1 C24 1.33 24 1.66 24 2 C11.625 2.495 11.625 2.495 -1 3 C-0.67 2.01 -0.34 1.02 0 0 Z " fill="#F76EBC" transform="translate(494,315)"/>
<path d="M0 0 C-2.20389144 1.14275852 -4.24489205 2.07579992 -6.625 2.8125 C-9.23958333 3.82291667 -9.23958333 3.82291667 -10.3125 6.625 C-10.539375 7.40875 -10.76625 8.1925 -11 9 C-11.66 9 -12.32 9 -13 9 C-14.62514468 10.45833358 -14.62514468 10.45833358 -16 12 C-15.39209764 8.97384868 -14.45703588 6.8380605 -12.6875 4.3125 C-12.27886719 3.71050781 -11.87023437 3.10851562 -11.44921875 2.48828125 C-8.34667901 -0.6978849 -4.18957005 -0.0952175 0 0 Z " fill="#F4299E" transform="translate(310,305)"/>
<path d="M0 0 C3.79049707 1.42749981 7.27122456 3.16236542 10.8125 5.125 C12.27623047 5.93324219 12.27623047 5.93324219 13.76953125 6.7578125 C14.50558594 7.16773438 15.24164063 7.57765625 16 8 C13.66682784 8.77772405 11.38564077 9.42415568 9 10 C8.814375 9.4225 8.62875 8.845 8.4375 8.25 C6.29448878 4.89572157 3.51177437 3.82092004 0 2 C0 1.34 0 0.68 0 0 Z " fill="#F534A4" transform="translate(177,353)"/>
<path d="M0 0 C0.99 0.33 1.98 0.66 3 1 C3.6875 3.25 3.6875 3.25 4 6 C2.5625 8.3125 2.5625 8.3125 1 10 C0.67 9.34 0.34 8.68 0 8 C-0.99 7.67 -1.98 7.34 -3 7 C-2.34 7 -1.68 7 -1 7 C-1.20625 6.401875 -1.4125 5.80375 -1.625 5.1875 C-2 3 -2 3 0 0 Z " fill="#FDA844" transform="translate(115,142)"/>
<path d="M0 0 C1.32 0.66 2.64 1.32 4 2 C3.01 2.495 3.01 2.495 2 3 C2.33 3.99 2.66 4.98 3 6 C1.824375 6.12375 1.824375 6.12375 0.625 6.25 C-2.14749104 6.72806339 -2.14749104 6.72806339 -3.3125 9.0625 C-3.539375 9.701875 -3.76625 10.34125 -4 11 C-3.48964169 6.6109185 -2.47785723 3.66291938 0 0 Z " fill="#52A7E0" transform="translate(451,135)"/>
<path d="M0 0 C0.99 0.33 1.98 0.66 3 1 C2.01 1.33 1.02 1.66 0 2 C-0.33 2.99 -0.66 3.98 -1 5 C-2.9609375 6.60546875 -2.9609375 6.60546875 -5.375 8.1875 C-6.16648437 8.71730469 -6.95796875 9.24710938 -7.7734375 9.79296875 C-10 11 -10 11 -13 11 C-11.39801112 9.53927468 -9.79332884 8.08150284 -8.1875 6.625 C-7.29417969 5.81289062 -6.40085937 5.00078125 -5.48046875 4.1640625 C-3 2 -3 2 0 0 Z " fill="#4CA6E0" transform="translate(851,127)"/>
<path d="M0 0 C-5.75 3 -5.75 3 -8 3 C-7.34 4.32 -6.68 5.64 -6 7 C-6.99 7.66 -7.98 8.32 -9 9 C-9.103125 8.360625 -9.20625 7.72125 -9.3125 7.0625 C-9.539375 6.381875 -9.76625 5.70125 -10 5 C-10.99 4.67 -11.98 4.34 -13 4 C-11.40233897 3.13372601 -9.79660056 2.28233535 -8.1875 1.4375 C-7.29417969 0.96183594 -6.40085938 0.48617188 -5.48046875 -0.00390625 C-3 -1 -3 -1 0 0 Z " fill="#4CA6E1" transform="translate(250,267)"/>
<path d="M0 0 C-0.556875 0.268125 -1.11375 0.53625 -1.6875 0.8125 C-2.8321875 1.4003125 -2.8321875 1.4003125 -4 2 C-4.886875 2.45375 -5.77375 2.9075 -6.6875 3.375 C-9.15419458 4.78202502 -9.15419458 4.78202502 -9.8125 7.1875 C-9.874375 7.785625 -9.93625 8.38375 -10 9 C-10.99 8.67 -11.98 8.34 -13 8 C-13.99 8.495 -13.99 8.495 -15 9 C-13.50521886 5.19510255 -11.30557786 3.33809165 -8 1 C-5.07175348 0.02391783 -3.04386724 -0.08226668 0 0 Z " fill="#4EA7E1" transform="translate(339,111)"/>
<path d="M0 0 C0.66 0.33 1.32 0.66 2 1 C0.58680023 2.12935196 -0.83071405 3.25330626 -2.25 4.375 C-3.03890625 5.00148437 -3.8278125 5.62796875 -4.640625 6.2734375 C-6.74333352 7.81217453 -8.5639251 9.08395531 -11 10 C-11.99 9.67 -12.98 9.34 -14 9 C-12.61903214 6.23806427 -10.67115134 5.97094424 -7.921875 4.86328125 C-5.03015149 3.56435667 -2.5844594 1.82803226 0 0 Z " fill="#4FA8E2" transform="translate(646,238)"/>
<path d="M0 0 C1 2 1 2 0.36328125 4.20703125 C-1.58594824 9.04025085 -3.3905885 13.1327734 -7 17 C-6.37469224 13.40931522 -5.41818571 10.19404058 -4.0625 6.8125 C-3.72347656 5.95269531 -3.38445312 5.09289062 -3.03515625 4.20703125 C-2 2 -2 2 0 0 Z " fill="#4EA6E1" transform="translate(286,217)"/>
<path d="M0 0 C3.91744547 1.89607702 6.38196557 3.39135795 9 7 C9.72515704 11.32992319 9.92937023 15.61453309 10 20 C9.67 20 9.34 20 9 20 C8.77957031 18.83984375 8.77957031 18.83984375 8.5546875 17.65625 C7.00620484 10.46559491 4.96174315 5.4595232 0 0 Z " fill="#48A5E0" transform="translate(576,122)"/>
<path d="M0 0 C0.33 0 0.66 0 1 0 C1.84292075 7.58628679 -0.74863939 11.82540483 -5 18 C-6 15 -6 15 -5.22265625 13.17578125 C-4.1484375 11.45052083 -3.07421875 9.72526042 -2 8 C-2.66 7.67 -3.32 7.34 -4 7 C-3.01 7 -2.02 7 -1 7 C-0.67 4.69 -0.34 2.38 0 0 Z " fill="#4FA7E1" transform="translate(697,76)"/>
<path d="M0 0 C0.66 0.33 1.32 0.66 2 1 C0.71034824 2.37562854 -0.62689293 3.70766393 -2 5 C-2.66 5 -3.32 5 -4 5 C-4.33 6.32 -4.66 7.64 -5 9 C-5.99 9 -6.98 9 -8 9 C-8.33 9.66 -8.66 10.32 -9 11 C-9.66 10.34 -10.32 9.68 -11 9 C-7.37 6.03 -3.74 3.06 0 0 Z " fill="#4CA5E0" transform="translate(660,207)"/>
<path d="M0 0 C1.23593891 3.70781672 0.5678132 4.67510253 -0.9375 8.1875 C-1.31777344 9.08855469 -1.69804688 9.98960937 -2.08984375 10.91796875 C-2.39019531 11.60503906 -2.69054687 12.29210937 -3 13 C-3.33 12.01 -3.66 11.02 -4 10 C-3.67 9.34 -3.34 8.68 -3 8 C-3.99 8.33 -4.98 8.66 -6 9 C-6.99 8.34 -7.98 7.68 -9 7 C-8.01 7 -7.02 7 -6 7 C-5.67 6.34 -5.34 5.68 -5 5 C-4.01 5 -3.02 5 -2 5 C-1.34 3.35 -0.68 1.7 0 0 Z " fill="#4DA5DF" transform="translate(639,185)"/>
<path d="M0 0 C0.66 0 1.32 0 2 0 C1.67 1.32 1.34 2.64 1 4 C1.66 4 2.32 4 3 4 C3 4.99 3 5.98 3 7 C3.99 6.67 4.98 6.34 6 6 C6 6.66 6 7.32 6 8 C4.88625 7.979375 3.7725 7.95875 2.625 7.9375 C-0.83215921 7.73619282 -0.83215921 7.73619282 -3 9 C-2.01 6.03 -1.02 3.06 0 0 Z " fill="#52A7E0" transform="translate(704,151)"/>
<path d="M0 0 C1.10408203 0.01353516 1.10408203 0.01353516 2.23046875 0.02734375 C4.0287888 0.05069856 5.82693911 0.08656164 7.625 0.125 C5.18585508 2.56414492 4.41053569 2.41162523 1.0546875 2.5390625 C-0.28916016 2.59707031 -0.28916016 2.59707031 -1.66015625 2.65625 C-2.59730469 2.6871875 -3.53445313 2.718125 -4.5 2.75 C-5.44488281 2.78867188 -6.38976562 2.82734375 -7.36328125 2.8671875 C-9.70032375 2.96161346 -12.03735501 3.04718394 -14.375 3.125 C-14.375 2.795 -14.375 2.465 -14.375 2.125 C-9.40488327 0.13381759 -5.25166865 -0.12345695 0 0 Z " fill="#88C5EB" transform="translate(695.375,123.875)"/>
<path d="M0 0 C3.26170837 0.59630351 5.13224998 1.64369767 7.625 3.8125 C8.21539063 4.31394531 8.80578125 4.81539063 9.4140625 5.33203125 C11.14291579 7.15030798 12.13887644 8.64348446 13 11 C12.67 11.99 12.34 12.98 12 14 C11.34 12.02 10.68 10.04 10 8 C9.34 8 8.68 8 8 8 C8 7.34 8 6.68 8 6 C7.4225 5.7525 6.845 5.505 6.25 5.25 C3.6997003 3.83316683 1.98214299 2.12372463 0 0 Z " fill="#46A3E0" transform="translate(735,119)"/>
<path d="M0 0 C0 3.97301335 -1.71216093 6.74642751 -3.5 10.1875 C-4.00080078 11.16879883 -4.00080078 11.16879883 -4.51171875 12.16992188 C-5.33576924 13.7827064 -6.16718155 15.39172559 -7 17 C-8.21992215 14.0877003 -8.01199085 13.03122531 -6.85546875 10.01953125 C-6.02982422 8.43205078 -6.02982422 8.43205078 -5.1875 6.8125 C-4.64480469 5.74644531 -4.10210937 4.68039063 -3.54296875 3.58203125 C-2 1 -2 1 0 0 Z " fill="#4CA6E1" transform="translate(416,71)"/>
<path d="M0 0 C10.55808656 0.96355353 10.55808656 0.96355353 15 2 C15 2.66 15 3.32 15 4 C10.83861737 4.08159574 7.0527516 3.98248524 3 3 C3 2.34 3 1.68 3 1 C2.01 0.67 1.02 0.34 0 0 Z " fill="#F856B2" transform="translate(641,292)"/>
<path d="M0 0 C0.66 0.66 1.32 1.32 2 2 C-2.12324647 6.25209792 -6.51282966 10.13635705 -11 14 C-11 11 -11 11 -8.59375 8.30078125 C-7.5700032 7.29697757 -6.5383946 6.30114351 -5.5 5.3125 C-4.97535156 4.80138672 -4.45070313 4.29027344 -3.91015625 3.76367188 C-2.61339096 2.50227292 -1.30753883 1.25022788 0 0 Z " fill="#F537A3" transform="translate(284,326)"/>
<path d="M0 0 C0.66 0.33 1.32 0.66 2 1 C-5.11389522 9.81548975 -5.11389522 9.81548975 -10 11 C-6.79239749 7.19364503 -3.59253891 3.45436433 0 0 Z " fill="#51A7E1" transform="translate(234,311)"/>
<path d="M0 0 C0.66 1.32 1.32 2.64 2 4 C-0.69648689 6.69648689 -3.66611962 8.14784424 -7 10 C-5.6062718 5.56541027 -3.39417765 3.12621626 0 0 Z " fill="#FD8F1C" transform="translate(19,240)"/>
<path d="M0 0 C0.99 0.33 1.98 0.66 3 1 C0.525 2.485 0.525 2.485 -2 4 C-1.34 4.66 -0.68 5.32 0 6 C-2.97 6.66 -5.94 7.32 -9 8 C-2.92207792 1.75324675 -2.92207792 1.75324675 0 0 Z " fill="#4AA5E0" transform="translate(266,113)"/>
<path d="M0 0 C1 3 1 3 -0.21484375 5.69921875 C-0.78332031 6.68535156 -1.35179687 7.67148437 -1.9375 8.6875 C-2.50339844 9.68136719 -3.06929688 10.67523438 -3.65234375 11.69921875 C-4.31943359 12.83810547 -4.31943359 12.83810547 -5 14 C-5.66 14 -6.32 14 -7 14 C-5.23570801 9.02790438 -2.6060834 4.56561939 0 0 Z " fill="#51A9E1" transform="translate(296,276)"/>
<path d="M0 0 C1.125 3.75 1.125 3.75 0 6 C0.66 6.33 1.32 6.66 2 7 C0.6875 9.9375 0.6875 9.9375 -1 13 C-1.99 13.33 -2.98 13.66 -4 14 C-3.52188823 12.22888156 -3.0424722 10.45811517 -2.5625 8.6875 C-2.29566406 7.70136719 -2.02882812 6.71523437 -1.75390625 5.69921875 C-1.21920575 3.78482474 -0.62855462 1.88566385 0 0 Z " fill="#FCA74D" transform="translate(136,194)"/>
<path d="M0 0 C0.99 0.33 1.98 0.66 3 1 C0.20145256 4.29240875 -3.20673275 6.03562946 -7 8 C-7.99 8 -8.98 8 -10 8 C-8.40629329 6.63353852 -6.79967018 5.28212834 -5.1875 3.9375 C-4.29417969 3.18339844 -3.40085937 2.42929688 -2.48046875 1.65234375 C-1.25263672 0.83443359 -1.25263672 0.83443359 0 0 Z " fill="#51A7E1" transform="translate(826,147)"/>
<path d="M0 0 C1.15392455 2.3078491 1.53437166 4.47230331 2 7 C0.35 7.33 -1.3 7.66 -3 8 C-3 8.66 -3 9.32 -3 10 C-3.66 9.67 -4.32 9.34 -5 9 C-4.3566152 7.686298 -3.71021785 6.37407102 -3.0625 5.0625 C-2.70285156 4.33160156 -2.34320313 3.60070312 -1.97265625 2.84765625 C-1 1 -1 1 0 0 Z " fill="#FD9724" transform="translate(91,135)"/>
<path d="M0 0 C0 0.33 0 0.66 0 1 C-0.7425 1.144375 -1.485 1.28875 -2.25 1.4375 C-3.7921247 1.7529346 -5.33123008 2.09543918 -6.84375 2.53125 C-9.36680917 3.07974112 -11.67036234 3.0964426 -14.25 3.0625 C-15.14203125 3.05347656 -16.0340625 3.04445313 -16.953125 3.03515625 C-17.62859375 3.02355469 -18.3040625 3.01195313 -19 3 C-13.34406272 -0.77062485 -6.58289369 -0.13434477 0 0 Z " fill="#79BCE8" transform="translate(633,106)"/>
<path d="M0 0 C6.93 0.495 6.93 0.495 14 1 C14 1.33 14 1.66 14 2 C6.64424835 2.70776992 -0.6094524 3.14715692 -8 3 C-8 2.67 -8 2.34 -8 2 C-5.36 2 -2.72 2 0 2 C0 1.34 0 0.68 0 0 Z " fill="#F76ABB" transform="translate(475,317)"/>
<path d="M0 0 C0 3.58912412 -0.66436554 4.10857029 -3 6.6875 C-3.556875 7.31011719 -4.11375 7.93273437 -4.6875 8.57421875 C-5.120625 9.04472656 -5.55375 9.51523438 -6 10 C-6.66 9.67 -7.32 9.34 -8 9 C-5.89851796 5.01824456 -3.63094642 2.64960955 0 0 Z " fill="#52A9E2" transform="translate(516,191)"/>
<path d="M0 0 C0.99 0.33 1.98 0.66 3 1 C2.814375 1.61875 2.62875 2.2375 2.4375 2.875 C1.76313824 5.04160178 1.76313824 5.04160178 3 7 C2.01 8.485 2.01 8.485 1 10 C-0.625 7.8125 -0.625 7.8125 -2 5 C-1.1875 2.1875 -1.1875 2.1875 0 0 Z " fill="#6DB5E6" transform="translate(639,178)"/>
<path d="M0 0 C0 0.66 0 1.32 0 2 C-2.97 2.66 -5.94 3.32 -9 4 C-9 5.98 -9 7.96 -9 10 C-9.33 10 -9.66 10 -10 10 C-10.48468708 3.57789614 -10.48468708 3.57789614 -8.375 1.0625 C-5.43969547 -0.25066255 -3.18136394 -0.21691118 0 0 Z " fill="#FDA54C" transform="translate(37,159)"/>
<path d="M0 0 C0.66 0 1.32 0 2 0 C1.71682074 1.60568666 1.42312209 3.20952047 1.125 4.8125 C0.96257812 5.70582031 0.80015625 6.59914062 0.6328125 7.51953125 C0 10 0 10 -2 13 C-3.18771723 9.57056481 -2.80226223 7.62215325 -1.5625 4.25 C-1.27503906 3.45078125 -0.98757812 2.6515625 -0.69140625 1.828125 C-0.46324219 1.22484375 -0.23507813 0.6215625 0 0 Z " fill="#FC9D37" transform="translate(197,146)"/>
<path d="M0 0 C3.63 0.66 7.26 1.32 11 2 C8.60236815 4.39763185 7.66726502 4.34280586 4.375 4.625 C3.55773437 4.69976562 2.74046875 4.77453125 1.8984375 4.8515625 C1.27195312 4.90054687 0.64546875 4.94953125 0 5 C0.66 4.67 1.32 4.34 2 4 C2 3.34 2 2.68 2 2 C1.34 2 0.68 2 0 2 C0 1.34 0 0.68 0 0 Z " fill="#F866BA" transform="translate(276,350)"/>
<path d="M0 0 C0.66 0.33 1.32 0.66 2 1 C2 1.66 2 2.32 2 3 C2.66 3.33 3.32 3.66 4 4 C3.34 4 2.68 4 2 4 C2 4.66 2 5.32 2 6 C0.741875 6.04125 -0.51625 6.0825 -1.8125 6.125 C-2.52019531 6.14820313 -3.22789062 6.17140625 -3.95703125 6.1953125 C-6 6 -6 6 -9 4 C-7.88625 4.020625 -6.7725 4.04125 -5.625 4.0625 C-2.16784079 4.26380718 -2.16784079 4.26380718 0 3 C0 2.01 0 1.02 0 0 Z " fill="#F764BB" transform="translate(154,382)"/>
<path d="M0 0 C0.99 0.33 1.98 0.66 3 1 C-0.3 3.64 -3.6 6.28 -7 9 C-7.66 8.67 -8.32 8.34 -9 8 C-2.92207792 1.75324675 -2.92207792 1.75324675 0 0 Z " fill="#F535A4" transform="translate(268,341)"/>
<path d="M0 0 C1.2380014 3.57644848 0.74926071 6.33694766 0 10 C0.66 10.33 1.32 10.66 2 11 C0.68 11 -0.64 11 -2 11 C-2 8.36 -2 5.72 -2 3 C-1.34 3 -0.68 3 0 3 C0 2.01 0 1.02 0 0 Z " fill="#6DB6E6" transform="translate(716,209)"/>
<path d="M0 0 C2.475 0.495 2.475 0.495 5 1 C5 1.66 5 2.32 5 3 C5.66 3 6.32 3 7 3 C6.67 3.99 6.34 4.98 6 6 C4.02 5.34 2.04 4.68 0 4 C0 2.68 0 1.36 0 0 Z " fill="#69B4E7" transform="translate(281,208)"/>
<path d="M0 0 C1.67542976 0.28604898 3.34385343 0.61781233 5 1 C5 4.3 5 7.6 5 11 C4.67 11 4.34 11 4 11 C3.67 9.02 3.34 7.04 3 5 C2.34 5 1.68 5 1 5 C1 4.01 1 3.02 1 2 C0.34 1.67 -0.32 1.34 -1 1 C-0.67 0.67 -0.34 0.34 0 0 Z " fill="#49A4E0" transform="translate(236,208)"/>
<path d="M0 0 C1 3 1 3 0.22265625 4.82421875 C-0.8515625 6.54947917 -1.92578125 8.27473958 -3 10 C-4.15941038 6.52176885 -3.70820884 4.54104422 -3 1 C-2.01 0.67 -1.02 0.34 0 0 Z " fill="#51A8E1" transform="translate(722,193)"/>
<path d="M0 0 C0.66 0.99 1.32 1.98 2 3 C2.66 3 3.32 3 4 3 C4 3.66 4 4.32 4 5 C3.01 5.495 3.01 5.495 2 6 C1.01 7.485 1.01 7.485 0 9 C-0.33 8.67 -0.66 8.34 -1 8 C-1.66 8.66 -2.32 9.32 -3 10 C-2.49287967 6.28111761 -1.88391785 3.26545761 0 0 Z " fill="#FDA646" transform="translate(160,126)"/>
<path d="M0 0 C0.66 0.33 1.32 0.66 2 1 C-0.97 4.63 -3.94 8.26 -7 12 C-7 8.19654123 -5.86213669 7.22298985 -3.5 4.3125 C-2.8503125 3.50425781 -2.200625 2.69601563 -1.53125 1.86328125 C-1.0259375 1.24839844 -0.520625 0.63351563 0 0 Z " fill="#47A2DF" transform="translate(507,124)"/>
<path d="M0 0 C0.99 0 1.98 0 3 0 C2.67 2.31 2.34 4.62 2 7 C0.35 6.67 -1.3 6.34 -3 6 C-2 4 -1 2 0 0 Z " fill="#67B2E5" transform="translate(741,74)"/>
<path d="M0 0 C0 0.66 0 1.32 0 2 C-1.609375 3.32421875 -1.609375 3.32421875 -3.75 4.6875 C-4.44609375 5.14511719 -5.1421875 5.60273438 -5.859375 6.07421875 C-8.39090725 7.16906025 -9.46100862 6.9435441 -12 6 C-11.0925 5.566875 -10.185 5.13375 -9.25 4.6875 C-6.07225128 3.15019164 -6.07225128 3.15019164 -3.75 1.3125 C-2 0 -2 0 0 0 Z " fill="#4CA6DF" transform="translate(857,242)"/>
<path d="M0 0 C0.99 0 1.98 0 3 0 C2.67 1.65 2.34 3.3 2 5 C1.01 5 0.02 5 -1 5 C-1.33 6.32 -1.66 7.64 -2 9 C-2.33 8.34 -2.66 7.68 -3 7 C-2.06421005 4.64018187 -1.06652192 2.30368736 0 0 Z " fill="#FCAB56" transform="translate(140,184)"/>
<path d="M0 0 C0.99 0.33 1.98 0.66 3 1 C0.69 3.31 -1.62 5.62 -4 8 C-4.66 7.67 -5.32 7.34 -6 7 C-4.02 4.69 -2.04 2.38 0 0 Z " fill="#52A8E0" transform="translate(246,129)"/>
<path d="M0 0 C-1.24687592 0.96239452 -2.49764969 1.91974009 -3.75 2.875 C-4.44609375 3.40867187 -5.1421875 3.94234375 -5.859375 4.4921875 C-7.84722603 5.89238914 -9.79843386 6.97855265 -12 8 C-10.67667681 4.03003043 -7.9910601 2.23963605 -4.75390625 -0.14453125 C-3 -1 -3 -1 0 0 Z " fill="#42A2DF" transform="translate(867,118)"/>
<path d="M0 0 C1.134375 0.020625 2.26875 0.04125 3.4375 0.0625 C3.4375 0.7225 3.4375 1.3825 3.4375 2.0625 C-2.5025 2.5575 -2.5025 2.5575 -8.5625 3.0625 C-7.2425 2.4025 -5.9225 1.7425 -4.5625 1.0625 C-3.5625 0.0625 -3.5625 0.0625 0 0 Z " fill="#F635A4" transform="translate(338.5625,337.9375)"/>
<path d="M0 0 C0.66 0.33 1.32 0.66 2 1 C0.92643323 2.15498897 -0.15929788 3.29867867 -1.25 4.4375 C-1.85328125 5.07558594 -2.4565625 5.71367187 -3.078125 6.37109375 C-5.10048016 8.08516306 -6.41270605 8.59358878 -9 9 C-6 6 -3 3 0 0 Z " fill="#42A0E0" transform="translate(502,204)"/>
<path d="M0 0 C0.33 0.66 0.66 1.32 1 2 C1.66 2 2.32 2 3 2 C2.34 3.32 1.68 4.64 1 6 C-0.65 6 -2.3 6 -4 6 C-2.84826645 3.53199953 -1.95216435 1.95216435 0 0 Z " fill="#69B3E6" transform="translate(370,165)"/>
<path d="M0 0 C0 3 0 3 -2.375 5.6875 C-5 8 -5 8 -7 8 C-7 6.68 -7 5.36 -7 4 C-5.824375 3.566875 -5.824375 3.566875 -4.625 3.125 C-1.90328368 2.15087746 -1.90328368 2.15087746 0 0 Z " fill="#4AA5E0" transform="translate(503,154)"/>
<path d="M0 0 C0.33 0.66 0.66 1.32 1 2 C0.22265625 4.1640625 0.22265625 4.1640625 -0.9375 6.625 C-1.31777344 7.44226563 -1.69804687 8.25953125 -2.08984375 9.1015625 C-2.39019531 9.72804687 -2.69054687 10.35453125 -3 11 C-3.66 10.01 -4.32 9.02 -5 8 C-3.35 5.36 -1.7 2.72 0 0 Z " fill="#52A8E2" transform="translate(379,145)"/>
<path d="M0 0 C-3.03525486 2.02350324 -4.19426202 2.32124018 -7.6875 2.625 C-8.49574219 2.69976562 -9.30398438 2.77453125 -10.13671875 2.8515625 C-10.75160156 2.90054687 -11.36648438 2.94953125 -12 3 C-8.61613364 -0.38386636 -4.56431325 -1.75550509 0 0 Z " fill="#F638A5" transform="translate(268,357)"/>
<path d="M0 0 C-3.08809695 1.76462683 -4.23312136 2 -8 2 C-8 2.66 -8 3.32 -8 4 C-8.99 3.67 -9.98 3.34 -11 3 C-10 1 -10 1 -7.1875 -0.1875 C-4.14038924 -0.96421451 -2.86250637 -1.10096399 0 0 Z " fill="#F430A2" transform="translate(143,342)"/>
<path d="M0 0 C0.53625 0.474375 1.0725 0.94875 1.625 1.4375 C4.42842836 3.28186076 6.69620258 3.62456847 10 4 C9.34 4.66 8.68 5.32 8 6 C5 5.9375 5 5.9375 2 5 C0.625 2.4375 0.625 2.4375 0 0 Z " fill="#4EA6E1" transform="translate(466,220)"/>
<path d="M0 0 C-1.23944276 0.86941494 -2.49207059 1.72005457 -3.75 2.5625 C-4.44609375 3.03816406 -5.1421875 3.51382813 -5.859375 4.00390625 C-8 5 -8 5 -10.265625 4.65234375 C-10.83796875 4.43707031 -11.4103125 4.22179687 -12 4 C-10.56988027 3.13353333 -9.13059381 2.28218171 -7.6875 1.4375 C-6.48673828 0.72400391 -6.48673828 0.72400391 -5.26171875 -0.00390625 C-3 -1 -3 -1 0 0 Z " fill="#51A9E2" transform="translate(564,216)"/>
<path d="M0 0 C0.66 0.33 1.32 0.66 2 1 C2 1.66 2 2.32 2 3 C-2.43076923 5.09230769 -2.43076923 5.09230769 -5.3125 4.625 C-5.869375 4.41875 -6.42625 4.2125 -7 4 C-1.7265625 0.77734375 -1.7265625 0.77734375 0 0 Z " fill="#70B8E8" transform="translate(274,108)"/>
<path d="M0 0 C0.66 1.32 1.32 2.64 2 4 C0.68 5.32 -0.64 6.64 -2 8 C-2.6875 6.25 -2.6875 6.25 -3 4 C-1.5625 1.75 -1.5625 1.75 0 0 Z " fill="#FCA33E" transform="translate(144,54)"/>
<path d="M0 0 C2.93200474 2.85276137 5.64315404 5.65079784 8 9 C6.25 8.875 6.25 8.875 4 8 C0 2.77777778 0 2.77777778 0 0 Z " fill="#4EA6E0" transform="translate(820,235)"/>
<path d="M0 0 C1 2 1 2 0.75 3.9375 C-0.09806644 6.26968272 -1.1450996 7.38704313 -3 9 C-3.99 8.67 -4.98 8.34 -6 8 C-4.02 5.36 -2.04 2.72 0 0 Z " fill="#FB9B3A" transform="translate(43,207)"/>
<path d="M0 0 C3.72114571 2.31537955 6.61229661 4.28579473 9 8 C5.4213696 6.34832443 2.25179812 4.21713508 -1 2 C-0.67 1.34 -0.34 0.68 0 0 Z " fill="#53A9E1" transform="translate(409,121)"/>
<path d="M0 0 C3.33523252 1.38009621 5.18607951 2.84950652 7 6 C6.67 6.99 6.34 7.98 6 9 C5.566875 8.195625 5.13375 7.39125 4.6875 6.5625 C3.19525998 3.72153646 3.19525998 3.72153646 0 3 C0 2.01 0 1.02 0 0 Z " fill="#419FDE" transform="translate(890,116)"/>
<path d="M0 0 C0.89674777 2.51089376 1.13172674 3.64535109 0.1875 6.1875 C-1 8 -1 8 -3 9 C-2.67 6.69 -2.34 4.38 -2 2 C-1.34 2 -0.68 2 0 2 C0 1.34 0 0.68 0 0 Z " fill="#FCA647" transform="translate(178,73)"/>
<path d="M0 0 C2.10633718 1.70828921 2.93801608 2.52148416 3.29296875 5.26171875 C3.25816406 6.06222656 3.22335937 6.86273438 3.1875 7.6875 C3.16042969 8.49574219 3.13335938 9.30398437 3.10546875 10.13671875 C3.07066406 10.75160156 3.03585937 11.36648437 3 12 C2.67 12 2.34 12 2 12 C0.86235649 7.73383684 0 4.43513689 0 0 Z " fill="#48A5E0" transform="translate(870,42)"/>
<path d="M0 0 C0.66 0.33 1.32 0.66 2 1 C1.34 3.64 0.68 6.28 0 9 C-0.33 9 -0.66 9 -1 9 C-1.625 6.1875 -1.625 6.1875 -2 3 C-1.34 2.01 -0.68 1.02 0 0 Z M-4 4 C-3.34 4.33 -2.68 4.66 -2 5 C-2.99 5 -3.98 5 -5 5 C-4.67 4.67 -4.34 4.34 -4 4 Z " fill="#C8E3F4" transform="translate(516,209)"/>
<path d="M0 0 C0.33 0.99 0.66 1.98 1 3 C-0.32 4.32 -1.64 5.64 -3 7 C-3.66 6.67 -4.32 6.34 -5 6 C-3.63016497 2.83884224 -3.0109362 2.0072908 0 0 Z " fill="#53A9E2" transform="translate(278,196)"/>
<path d="M0 0 C0.66 0.33 1.32 0.66 2 1 C0.02 3.31 -1.96 5.62 -4 8 C-4.99 7.67 -5.98 7.34 -7 7 C-4.69 4.69 -2.38 2.38 0 0 Z " fill="#4DA5E0" transform="translate(424,189)"/>
<path d="M0 0 C1.0326802 2.78823655 1.04509293 3.8677274 0.0625 6.75 C-0.288125 7.4925 -0.63875 8.235 -1 9 C-2 6 -2 6 -2 4 C-2.66 3.67 -3.32 3.34 -4 3 C-3.01 3 -2.02 3 -1 3 C-0.67 2.01 -0.34 1.02 0 0 Z " fill="#68B3E6" transform="translate(503,98)"/>
<path d="M0 0 C-0.33 0.99 -0.66 1.98 -1 3 C-3.64 3.33 -6.28 3.66 -9 4 C-8.01 3.67 -7.02 3.34 -6 3 C-6 2.34 -6 1.68 -6 1 C-3.92446352 0.4465236 -2.15634036 0 0 0 Z " fill="#F659B5" transform="translate(175,384)"/>
<path d="M0 0 C0.66 0 1.32 0 2 0 C1.34 2.31 0.68 4.62 0 7 C-0.99 7 -1.98 7 -3 7 C-1.125 2.25 -1.125 2.25 0 0 Z " fill="#4CA5E1" transform="translate(301,166)"/>
<path d="M0 0 C0.33 0.99 0.66 1.98 1 3 C0.01 4.485 0.01 4.485 -1 6 C-0.34 6.33 0.32 6.66 1 7 C-0.65 7 -2.3 7 -4 7 C-2.92598892 4.08482708 -2.22189824 2.22189824 0 0 Z " fill="#FCA644" transform="translate(158,35)"/>
</svg>
